<?xml version="1.0" encoding="utf-8"?>
<!-- Generator: Adobe Illustrator 26.1.0, SVG Export Plug-In . SVG Version: 6.00 Build 0)  -->
<svg version="1.1" id="a" xmlns="http://www.w3.org/2000/svg" xmlns:xlink="http://www.w3.org/1999/xlink" x="0px" y="0px"
	 viewBox="0 0 1661.1 1777.3" style="enable-background:new 0 0 1661.1 1777.3;" xml:space="preserve">
<style type="text/css">
	.st0{fill-rule:evenodd;clip-rule:evenodd;fill:#D6006B;}
	.st1{fill-rule:evenodd;clip-rule:evenodd;fill:#0091C8;}
	.st2{fill:#FFFFFF;}
	.st3{font-family:'Lato-Light';}
	.st4{font-size:296px;}
	.st5{letter-spacing:5;}
	.st6{letter-spacing:-26;}
</style>
<path class="st0" d="M814.2,49.2c6.9,0,13.7,0.1,20.5,0.3V58h-20.5V49.2L814.2,49.2z M817.1,1697.3c6.9,0,13.7-0.1,20.5-0.3v-8.6
	h-20.5V1697.3L817.1,1697.3L817.1,1697.3z M82.2,1078.7H61.7v20.2h20.5V1078.7L82.2,1078.7z M140.1,1078.7h-20.5v20.2h20.5V1078.7
	L140.1,1078.7z M169.1,1078.7h-20.6v20.2h20.6V1078.7L169.1,1078.7z M198,1078.7h-20.6v20.2H198V1078.7L198,1078.7z M227,1078.7
	h-20.6v20.2H227V1078.7L227,1078.7z M284.8,1078.7h-20.6v20.2h20.6V1078.7L284.8,1078.7z M371.7,1078.7h-20.6v20.2h20.6V1078.7
	L371.7,1078.7z M400.6,1078.7H380v20.2h20.6V1078.7L400.6,1078.7z M429.6,1078.7H409v20.2h20.6V1078.7L429.6,1078.7z M487.4,1078.7
	h-20.6v20.2h20.6V1078.7L487.4,1078.7z M516.4,1078.7h-20.6v20.2h20.6V1078.7L516.4,1078.7z M574.3,1078.7h-20.6v20.2h20.6V1078.7
	L574.3,1078.7z M776.9,1078.7h-20.6v20.2h20.6V1078.7L776.9,1078.7z M832.1,1009.4h-20.5v20.2h20.5V1009.4L832.1,1009.4
	L832.1,1009.4z M892.6,1078.7h-20.5v20.2h20.5V1078.7L892.6,1078.7z M921.6,1078.7H901v20.2h20.5V1078.7L921.6,1078.7z
	 M979.5,1078.7h-20.5v20.2h20.5V1078.7L979.5,1078.7z M1008.4,1078.7h-20.6v20.2h20.6V1078.7L1008.4,1078.7z M1066.3,1078.7h-20.6
	v20.2h20.6V1078.7L1066.3,1078.7z M1095.2,1078.7h-20.6v20.2h20.6V1078.7L1095.2,1078.7z M1153.1,1078.7h-20.6v20.2h20.6V1078.7
	L1153.1,1078.7z M1211,1078.7h-20.6v20.2h20.6V1078.7L1211,1078.7z M1239.9,1078.7h-20.6v20.2h20.6V1078.7L1239.9,1078.7z
	 M1268.9,1078.7h-20.6v20.2h20.6V1078.7L1268.9,1078.7z M1297.8,1078.7h-20.6v20.2h20.6V1078.7L1297.8,1078.7z M1355.7,1078.7h-20.6
	v20.2h20.6V1078.7L1355.7,1078.7z M1384.6,1078.7h-20.6v20.2h20.6V1078.7L1384.6,1078.7z M1442.5,1078.7H1422v20.2h20.6V1078.7
	L1442.5,1078.7z M53.3,1107.3h-9.2c2.2,6.9,4.5,13.7,7,20.6h2.2L53.3,1107.3C53.3,1107.3,53.3,1107.3,53.3,1107.3z M82.2,1107.3
	H61.7v20.6h20.5V1107.3L82.2,1107.3z M140.1,1107.3h-20.5v20.6h20.5V1107.3L140.1,1107.3z M255.9,1107.3h-20.6v20.6h20.6V1107.3
	L255.9,1107.3z M284.8,1107.3h-20.6v20.6h20.6V1107.3L284.8,1107.3z M371.6,1107.3h-20.6v20.6h20.6V1107.3L371.6,1107.3z
	 M400.6,1107.3H380v20.6h20.6V1107.3L400.6,1107.3z M429.5,1107.3H409v20.6h20.6V1107.3L429.5,1107.3z M458.5,1107.3h-20.5v20.6
	h20.5V1107.3L458.5,1107.3z M516.4,1107.3h-20.6v20.6h20.6V1107.3L516.4,1107.3z M574.2,1107.3h-20.6v20.6h20.6V1107.3L574.2,1107.3
	z M603.2,1107.3h-20.5v20.6h20.5V1107.3L603.2,1107.3z M632.1,1107.3h-20.6v20.6h20.6V1107.3L632.1,1107.3z M661.1,1107.3h-20.6
	v20.6h20.6V1107.3L661.1,1107.3z M719,1017.7h-20.6v20.6H719V1017.7L719,1017.7L719,1017.7z M805.8,1107.3h-20.5v20.6h20.5V1107.3
	L805.8,1107.3z M834.7,1107.3h-20.5v20.6h20.5V1107.3L834.7,1107.3z M892.6,1107.3h-20.5v20.6h20.5V1107.3L892.6,1107.3z
	 M950.5,1107.3h-20.6v20.6h20.6V1107.3L950.5,1107.3z M979.4,1107.3h-20.5v20.6h20.5V1107.3L979.4,1107.3z M1037.3,1107.3h-20.5
	v20.6h20.5V1107.3L1037.3,1107.3z M1066.3,1107.3h-20.6v20.6h20.6V1107.3L1066.3,1107.3z M1124.2,1107.3h-20.6v20.6h20.6V1107.3
	L1124.2,1107.3z M1153.1,1107.3h-20.6v20.6h20.6V1107.3L1153.1,1107.3z M1182,1107.3h-20.6v20.6h20.6V1107.3L1182,1107.3z
	 M1268.9,1107.3h-20.6v20.6h20.6V1107.3L1268.9,1107.3z M1297.8,1107.3h-20.6v20.6h20.6V1107.3L1297.8,1107.3z M1326.7,1107.3h-20.6
	v20.6h20.6V1107.3L1326.7,1107.3z M1355.7,1107.3h-20.6v20.6h20.6V1107.3L1355.7,1107.3z M1384.6,1107.3h-20.6v20.6h20.6V1107.3
	L1384.6,1107.3z M1442.5,1107.3H1422v20.6h20.6V1107.3L1442.5,1107.3z M1558.3,1107.3h-20.6v20.6h20.6V1107.3L1558.3,1107.3z
	 M1575.3,1127.9c2.4-6.8,4.7-13.7,7-20.6h-15.6v20.6H1575.3z M82.2,1136.3H61.6v19.9l0.3,0.7h20.3V1136.3L82.2,1136.3z
	 M111.1,1136.3H90.6v20.6h20.6V1136.3L111.1,1136.3z M198,1136.3h-20.6v20.6H198V1136.3L198,1136.3z M226.9,1136.3h-20.6v20.6h20.6
	V1136.3L226.9,1136.3z M255.8,1136.3h-20.6v20.6h20.6V1136.3L255.8,1136.3z M284.8,1136.3h-20.6v20.6h20.6V1136.3L284.8,1136.3z
	 M400.6,1136.3H380v20.6h20.6V1136.3L400.6,1136.3z M516.3,1136.3h-20.6v20.6h20.6V1136.3L516.3,1136.3z M603.2,1136.3h-20.5v20.6
	h20.5V1136.3L603.2,1136.3z M661.1,1136.3h-20.6v20.6h20.6V1136.3L661.1,1136.3z M776.8,1136.3h-20.6v20.6h20.6V1136.3L776.8,1136.3
	z M805.8,1136.3h-20.5v20.6h20.5V1136.3L805.8,1136.3z M863.7,1136.3h-20.6v20.6h20.6V1136.3L863.7,1136.3z M979.4,1136.3h-20.5
	v20.6h20.5V1136.3L979.4,1136.3z M1008.4,1136.3h-20.6v20.6h20.6V1136.3L1008.4,1136.3z M1066.3,1136.3h-20.6v20.6h20.6V1136.3
	L1066.3,1136.3z M1124.1,1136.3h-20.6v20.6h20.6V1136.3L1124.1,1136.3z M1153.1,1136.3h-20.6v20.6h20.6V1136.3L1153.1,1136.3z
	 M1268.9,1136.3h-20.6v20.6h20.6V1136.3L1268.9,1136.3z M1311.6,986.1H1291v20.5h20.6V986.1L1311.6,986.1z M1326.7,1136.3h-20.6
	v20.6h20.6V1136.3L1326.7,1136.3z M1355.7,1136.3h-20.6v20.6h20.6V1136.3L1355.7,1136.3z M1413.6,1136.3H1393v20.6h20.6V1136.3
	L1413.6,1136.3z M1442.5,1136.3H1422v20.6h20.6V1136.3L1442.5,1136.3z M1471.5,1136.3h-20.6v20.6h20.6V1136.3L1471.5,1136.3z
	 M1500.4,1136.3h-20.6v20.6h20.6V1136.3L1500.4,1136.3z M1529.3,1136.3h-20.6v20.6h20.6V1136.3L1529.3,1136.3z M1558.3,1136.3h-20.6
	v20.6h20.6V1136.3L1558.3,1136.3z M1566.7,1151.1c1.9-4.9,3.8-9.9,5.6-14.8h-5.6V1151.1L1566.7,1151.1z M82.2,1165.2H65.3
	c2.8,6.9,5.8,13.8,8.8,20.6h8.1L82.2,1165.2L82.2,1165.2L82.2,1165.2z M109.9,1283.6H89.3v20.6h20.6V1283.6L109.9,1283.6z
	 M140.1,1165.2h-20.5v20.6h20.5V1165.2L140.1,1165.2z M226.9,1165.2h-20.6v20.6h20.6V1165.2L226.9,1165.2z M313.8,1165.2h-20.6v20.6
	h20.6V1165.2L313.8,1165.2z M243.5,986.4h-20.6v20.6h20.6V986.4L243.5,986.4z M400.6,1165.2H380v20.6h20.6V1165.2L400.6,1165.2z
	 M429.5,1165.2H409v20.6h20.6V1165.2L429.5,1165.2z M458.5,1165.2h-20.5v20.6h20.5V1165.2L458.5,1165.2z M516.4,1165.2h-20.6v20.6
	h20.6V1165.2L516.4,1165.2z M545.3,1165.2h-20.5v20.6h20.5V1165.2L545.3,1165.2z M574.2,1165.2h-20.6v20.6h20.6V1165.2L574.2,1165.2
	z M547,1009.5h-20.5v20.6H547V1009.5L547,1009.5z M632.1,1165.2h-20.6v20.6h20.6V1165.2L632.1,1165.2z M719,1165.2h-20.6v20.6H719
	V1165.2L719,1165.2z M747.9,1165.2h-20.6v20.6h20.6V1165.2L747.9,1165.2z M805.8,1165.2h-20.5v20.6h20.5V1165.2L805.8,1165.2z
	 M834.7,1165.2h-20.5v20.6h20.5V1165.2L834.7,1165.2z M892.6,1165.2h-20.5v20.6h20.5V1165.2L892.6,1165.2z M921.5,1165.2H901v20.6
	h20.5V1165.2L921.5,1165.2z M950.5,1165.2h-20.6v20.6h20.6V1165.2L950.5,1165.2z M979.4,1165.2h-20.5v20.6h20.5V1165.2L979.4,1165.2
	z M1037.3,1165.2h-20.5v20.6h20.5V1165.2L1037.3,1165.2z M1095.2,1165.2h-20.6v20.6h20.6V1165.2L1095.2,1165.2z M1124.1,1165.2
	h-20.6v20.6h20.6V1165.2L1124.1,1165.2z M1182,1165.2h-20.6v20.6h20.6V1165.2L1182,1165.2z M1211,1165.2h-20.6v20.6h20.6V1165.2
	L1211,1165.2z M1239.9,1165.2h-20.6v20.6h20.6V1165.2L1239.9,1165.2z M1326.7,1165.2h-20.6v20.6h20.6V1165.2L1326.7,1165.2z
	 M1384.6,1165.2h-20.6v20.6h20.6V1165.2L1384.6,1165.2z M1413.6,1165.2H1393v20.6h20.6V1165.2L1413.6,1165.2z M1500.4,1165.2h-20.6
	v20.6h20.6V1165.2L1500.4,1165.2z M1529.3,1165.2h-20.6v20.6h20.6V1165.2L1529.3,1165.2z M1552.2,1185.8c2.1-4.7,4.1-9.4,6.1-14.1
	v-6.5h-20.6v20.6H1552.2L1552.2,1185.8z M82.2,1194.1h-4.2c1.4,3.1,2.8,6.1,4.2,9.1V1194.1L82.2,1194.1z M111.1,1194.1H90.6v20.6
	h20.6V1194.1L111.1,1194.1z M39.1,1207.8H18.6v20.6h20.5L39.1,1207.8L39.1,1207.8L39.1,1207.8z M169,1194.1h-20.6v20.6H169V1194.1
	L169,1194.1z M197.9,1194.1h-20.6v20.6h20.6V1194.1L197.9,1194.1z M255.8,1194.1h-20.6v20.6h20.6V1194.1L255.8,1194.1z
	 M284.8,1194.1h-20.6v20.6h20.6V1194.1L284.8,1194.1z M313.7,1194.1h-20.6v20.6h20.6V1194.1L313.7,1194.1z M342.7,1194.1h-20.6v20.6
	h20.6V1194.1L342.7,1194.1z M341.3,1001.7h-20.6v20.6h20.6V1001.7L341.3,1001.7z M429.5,1194.1h-20.6v20.6h20.6V1194.1L429.5,1194.1
	z M458.4,1194.1h-20.5v20.6h20.5V1194.1L458.4,1194.1z M487.4,1194.1h-20.6v20.6h20.6V1194.1L487.4,1194.1z M545.3,1194.1h-20.5
	v20.6h20.5V1194.1L545.3,1194.1z M603.1,1194.1h-20.5v20.6h20.5V1194.1L603.1,1194.1z M632.1,1194.1h-20.6v20.6h20.6V1194.1
	L632.1,1194.1z M661.1,1194.1h-20.6v20.6h20.6V1194.1L661.1,1194.1z M690,1194.1h-20.6v20.6H690V1194.1L690,1194.1z M747.9,1194.1
	h-20.6v20.6h20.6V1194.1L747.9,1194.1z M805.8,1194.1h-20.5v20.6h20.5V1194.1L805.8,1194.1z M834.7,1194.1h-20.5v20.6h20.5V1194.1
	L834.7,1194.1z M863.6,1194.1h-20.6v20.6h20.6V1194.1L863.6,1194.1z M892.6,1194.1H872v20.6h20.5V1194.1L892.6,1194.1z
	 M950.5,1194.1h-20.6v20.6h20.6V1194.1L950.5,1194.1z M1008.4,1194.1h-20.6v20.6h20.6V1194.1L1008.4,1194.1z M1066.2,1194.1h-20.6
	v20.6h20.6V1194.1L1066.2,1194.1z M1095.2,1194.1h-20.6v20.6h20.6V1194.1L1095.2,1194.1z M1124.1,1194.1h-20.6v20.6h20.6V1194.1
	L1124.1,1194.1z M1153.1,1194.1h-20.6v20.6h20.6V1194.1L1153.1,1194.1z M1182,1194.1h-20.6v20.6h20.6V1194.1L1182,1194.1z
	 M1210.9,1194.1h-20.6v20.6h20.6V1194.1L1210.9,1194.1z M1268.8,1194.1h-20.6v20.6h20.6V1194.1L1268.8,1194.1z M1297.8,1194.1h-20.6
	v20.6h20.6V1194.1L1297.8,1194.1z M1326.7,1194.1h-20.6v20.6h20.6V1194.1L1326.7,1194.1z M1355.7,1194.1h-20.6v20.6h20.6V1194.1
	L1355.7,1194.1z M1413.5,1194.1H1393v20.6h20.6V1194.1L1413.5,1194.1z M1442.5,1194.1h-20.6v20.6h20.6V1194.1L1442.5,1194.1z
	 M1471.4,1194.1h-20.6v20.6h20.6V1194.1L1471.4,1194.1z M1583,1331.8h-20.6v20.6h20.6V1331.8L1583,1331.8z M1529.3,1194.1h-20.6
	v20.6h20.6V1194.1L1529.3,1194.1z M1576.7,1239.8c3.3-6.8,6.6-13.7,9.8-20.6h-10.7v20.6H1576.7z M140,1223.1h-20.5v20.6H140V1223.1
	L140,1223.1z M33.2,1157H12.7v20.6h20.6L33.2,1157L33.2,1157L33.2,1157z M226.9,1223.1h-20.6v20.6h20.6V1223.1L226.9,1223.1z
	 M255.8,1223.1h-20.6v20.6h20.6V1223.1L255.8,1223.1z M342.7,1223.1h-20.6v20.6h20.6V1223.1L342.7,1223.1z M400.5,1223.1H380v20.6
	h20.6V1223.1L400.5,1223.1z M429.5,1223.1h-20.6v20.6h20.6V1223.1L429.5,1223.1z M487.4,1223.1h-20.6v20.6h20.6V1223.1L487.4,1223.1
	z M516.3,1223.1h-20.6v20.6h20.6V1223.1L516.3,1223.1z M574.2,1223.1h-20.6v20.6h20.6V1223.1L574.2,1223.1z M603.1,1223.1h-20.5
	v20.6h20.5V1223.1L603.1,1223.1z M661.1,1223.1h-20.6v20.6h20.6V1223.1L661.1,1223.1z M690,1223.1h-20.6v20.6H690V1223.1L690,1223.1
	z M805.8,1223.1h-20.5v20.6h20.5V1223.1L805.8,1223.1z M834.7,1223.1h-20.5v20.6h20.5V1223.1L834.7,1223.1z M863.6,1223.1h-20.6
	v20.6h20.6V1223.1L863.6,1223.1z M921.5,1223.1H901v20.6h20.5V1223.1L921.5,1223.1z M979.4,1223.1h-20.5v20.6h20.5V1223.1
	L979.4,1223.1z M1008.4,1223.1h-20.6v20.6h20.6V1223.1L1008.4,1223.1z M1037.3,1223.1h-20.5v20.6h20.5V1223.1L1037.3,1223.1z
	 M1066.2,1223.1h-20.6v20.6h20.6V1223.1L1066.2,1223.1z M1095.2,1223.1h-20.6v20.6h20.6V1223.1L1095.2,1223.1z M1124.1,1223.1h-20.6
	v20.6h20.6V1223.1L1124.1,1223.1z M1211,1223.1h-20.6v20.6h20.6V1223.1L1211,1223.1z M1239.9,1223.1h-20.6v20.6h20.6V1223.1
	L1239.9,1223.1z M1297.8,1223.1h-20.6v20.6h20.6V1223.1L1297.8,1223.1z M1384.6,1223.1h-20.6v20.6h20.6V1223.1L1384.6,1223.1z
	 M1413.6,1223.1H1393v20.6h20.6V1223.1L1413.6,1223.1z M1442.5,1223.1h-20.6v20.6h20.6V1223.1L1442.5,1223.1z M1471.4,1223.1h-20.6
	v20.6h20.6V1223.1L1471.4,1223.1z M111.1,1252h-3.8c1.2,2.2,2.5,4.5,3.8,6.7V1252L111.1,1252z M140.1,1252h-20.5v20.6h20.5V1252
	L140.1,1252z M169,1252h-20.6v20.6H169V1252L169,1252z M52.2,1270.7H31.6v20.6h20.6L52.2,1270.7L52.2,1270.7L52.2,1270.7z
	 M226.9,1252h-20.6v20.6h20.6V1252L226.9,1252z M284.8,1252h-20.6v20.6h20.6V1252L284.8,1252z M313.7,1252h-20.6v20.6h20.6V1252
	L313.7,1252z M342.7,1252h-20.6v20.6h20.6V1252L342.7,1252z M371.6,1252H351v20.6h20.6V1252L371.6,1252z M429.5,1252h-20.6v20.6
	h20.6V1252L429.5,1252z M458.4,1252h-20.5v20.6h20.5V1252L458.4,1252z M487.4,1252h-20.6v20.6h20.6V1252L487.4,1252z M545.3,1252
	h-20.5v20.6h20.5V1252L545.3,1252z M603.1,1252h-20.5v20.6h20.5V1252L603.1,1252z M661.1,1252h-20.6v20.6h20.6V1252L661.1,1252z
	 M719,1252h-20.6v20.6H719V1252L719,1252z M776.8,1252h-20.6v20.6h20.6V1252L776.8,1252z M805.8,1252h-20.5v20.6h20.5V1252
	L805.8,1252z M892.6,1252H872v20.6h20.5V1252L892.6,1252z M921.5,1252H901v20.6h20.5V1252L921.5,1252z M950.5,1252h-20.6v20.6h20.6
	V1252L950.5,1252z M979.4,1252h-20.5v20.6h20.5V1252L979.4,1252z M1008.3,1252h-20.6v20.6h20.6V1252L1008.3,1252z M1037.3,1252
	h-20.5v20.6h20.5V1252L1037.3,1252z M1124.1,1252h-20.6v20.6h20.6V1252L1124.1,1252z M1153.1,1252h-20.6v20.6h20.6V1252L1153.1,1252
	z M1210.9,1252h-20.6v20.6h20.6V1252L1210.9,1252z M1239.9,1252h-20.6v20.6h20.6V1252L1239.9,1252z M1268.8,1252h-20.6v20.6h20.6
	V1252L1268.8,1252z M1297.8,1252h-20.6v20.6h20.6V1252L1297.8,1252z M1355.6,1252h-20.6v20.6h20.6V1252L1355.6,1252z M1413.5,1252
	H1393v20.6h20.6V1252L1413.5,1252z M1442.5,1252h-20.6v20.6h20.6V1252L1442.5,1252z M1503,1223.7h-20.6v20.6h20.6V1223.7
	L1503,1223.7z M1518.2,1348.4h-20.6v20.6h20.6V1348.4L1518.2,1348.4z M1508.7,1269.7c3.5-5.9,6.9-11.8,10.2-17.7h-10.2V1269.7
	L1508.7,1269.7z M169,1280.9h-20.6v20.6H169V1280.9L169,1280.9z M197.9,1280.9h-20.6v20.6h20.6V1280.9L197.9,1280.9z M226.9,1280.9
	h-20.6v20.6h20.6V1280.9L226.9,1280.9z M313.7,1280.9h-20.6v20.6h20.6V1280.9L313.7,1280.9z M342.6,1280.9h-20.6v20.6h20.6V1280.9
	L342.6,1280.9z M76.2,1318.3H55.7v20.6h20.6V1318.3L76.2,1318.3z M400.5,1280.9h-20.6v20.6h20.6V1280.9L400.5,1280.9z M429.5,1280.9
	h-20.6v20.6h20.6V1280.9L429.5,1280.9z M487.4,1280.9h-20.6v20.6h20.6V1280.9L487.4,1280.9z M545.2,1280.9h-20.5v20.6h20.5V1280.9
	L545.2,1280.9z M574.2,1280.9h-20.6v20.6h20.6V1280.9L574.2,1280.9z M603.1,1280.9h-20.5v20.6h20.5V1280.9L603.1,1280.9z
	 M661,1280.9h-20.6v20.6H661V1280.9L661,1280.9z M690,1280.9h-20.6v20.6H690V1280.9L690,1280.9z M747.8,1280.9h-20.6v20.6h20.6
	V1280.9L747.8,1280.9z M776.8,1280.9h-20.6v20.6h20.6V1280.9L776.8,1280.9z M805.7,1280.9h-20.5v20.6h20.5V1280.9L805.7,1280.9z
	 M834.7,1280.9h-20.5v20.6h20.5V1280.9L834.7,1280.9z M921.5,1280.9h-20.5v20.6h20.5V1280.9L921.5,1280.9z M979.4,1280.9h-20.5v20.6
	h20.5V1280.9L979.4,1280.9z M1008.3,1280.9h-20.6v20.6h20.6V1280.9L1008.3,1280.9z M1037.3,1280.9h-20.5v20.6h20.5V1280.9
	L1037.3,1280.9z M1066.2,1280.9h-20.6v20.6h20.6V1280.9L1066.2,1280.9z M1095.2,1280.9h-20.6v20.6h20.6V1280.9L1095.2,1280.9z
	 M1153,1280.9h-20.6v20.6h20.6V1280.9L1153,1280.9z M1182,1280.9h-20.6v20.6h20.6V1280.9L1182,1280.9z M1210.9,1280.9h-20.6v20.6
	h20.6V1280.9L1210.9,1280.9z M1268.8,1280.9h-20.6v20.6h20.6V1280.9L1268.8,1280.9z M1297.8,1280.9h-20.6v20.6h20.6V1280.9
	L1297.8,1280.9z M1326.7,1280.9h-20.6v20.6h20.6V1280.9L1326.7,1280.9z M1384.6,1280.9H1364v20.6h20.6V1280.9L1384.6,1280.9z
	 M1413.5,1280.9H1393v20.6h20.6V1280.9L1413.5,1280.9z M169,1309.9h-20.6v7.9c3,4.3,5.9,8.5,9,12.7H169L169,1309.9L169,1309.9
	L169,1309.9z M226.9,1309.9h-20.6v20.6h20.6V1309.9L226.9,1309.9z M255.8,1309.9h-20.6v20.6h20.6V1309.9L255.8,1309.9z
	 M284.8,1309.9h-20.6v20.6h20.6V1309.9L284.8,1309.9z M313.7,1309.9h-20.6v20.6h20.6V1309.9L313.7,1309.9z M371.6,1309.9H351v20.6
	h20.6V1309.9L371.6,1309.9z M400.5,1309.9h-20.6v20.6h20.6V1309.9L400.5,1309.9z M458.4,1309.9h-20.5v20.6h20.5V1309.9L458.4,1309.9
	z M487.4,1309.9h-20.6v20.6h20.6V1309.9L487.4,1309.9z M516.3,1309.9h-20.6v20.6h20.6V1309.9L516.3,1309.9z M545.2,1309.9h-20.5
	v20.6h20.5V1309.9L545.2,1309.9z M574.2,1309.9h-20.6v20.6h20.6V1309.9L574.2,1309.9z M632.1,1309.9h-20.6v20.6h20.6V1309.9
	L632.1,1309.9z M661,1309.9h-20.6v20.6H661V1309.9L661,1309.9z M690,1309.9h-20.6v20.6H690V1309.9L690,1309.9z M718.9,1309.9h-20.6
	v20.6h20.6V1309.9L718.9,1309.9z M747.9,1309.9h-20.6v20.6h20.6V1309.9L747.9,1309.9z M776.8,1309.9h-20.6v20.6h20.6V1309.9
	L776.8,1309.9z M863.6,1309.9h-20.6v20.6h20.6V1309.9L863.6,1309.9z M892.6,1309.9H872v20.6h20.5V1309.9L892.6,1309.9z
	 M921.5,1309.9H901v20.6h20.5V1309.9L921.5,1309.9z M950.5,1309.9h-20.6v20.6h20.6V1309.9L950.5,1309.9z M979.4,1309.9h-20.5v20.6
	h20.5V1309.9L979.4,1309.9z M1008.3,1309.9h-20.6v20.6h20.6V1309.9L1008.3,1309.9z M1124.1,1309.9h-20.6v20.6h20.6V1309.9
	L1124.1,1309.9z M1153,1309.9h-20.6v20.6h20.6V1309.9L1153,1309.9z M1210.9,1309.9h-20.6v20.6h20.6V1309.9L1210.9,1309.9z
	 M1239.9,1309.9h-20.6v20.6h20.6V1309.9L1239.9,1309.9z M1297.8,1309.9h-20.6v20.6h20.6V1309.9L1297.8,1309.9z M1355.6,1309.9h-20.6
	v20.6h20.6V1309.9L1355.6,1309.9z M1487.8,1397.4h-20.6v20.6h20.6V1397.4L1487.8,1397.4z M169,1338.9h-5.5c1.8,2.4,3.6,4.9,5.5,7.3
	V1338.9L169,1338.9z M197.9,1338.9h-20.6v18.1l1.9,2.4h18.6V1338.9L197.9,1338.9z M226.9,1338.9h-20.6v20.6h20.6V1338.9
	L226.9,1338.9z M255.8,1338.9h-20.6v20.6h20.6V1338.9L255.8,1338.9z M313.7,1338.9h-20.6v20.6h20.6V1338.9L313.7,1338.9z
	 M342.6,1338.9h-20.6v20.6h20.6V1338.9L342.6,1338.9z M371.6,1338.9H351v20.6h20.6V1338.9L371.6,1338.9z M400.5,1338.9h-20.6v20.6
	h20.6V1338.9L400.5,1338.9z M429.5,1338.9h-20.6v20.6h20.6V1338.9L429.5,1338.9z M487.3,1338.9h-20.6v20.6h20.6V1338.9L487.3,1338.9
	z M516.3,1338.9h-20.6v20.6h20.6V1338.9L516.3,1338.9z M574.2,1338.9h-20.6v20.6h20.6V1338.9L574.2,1338.9z M603.1,1338.9h-20.5
	v20.6h20.5V1338.9L603.1,1338.9z M632.1,1338.9h-20.6v20.6h20.6V1338.9L632.1,1338.9z M661,1338.9h-20.6v20.6H661V1338.9L661,1338.9
	z M690,1338.9h-20.6v20.6H690V1338.9L690,1338.9z M718.9,1338.9h-20.6v20.6h20.6V1338.9L718.9,1338.9z M776.8,1338.9h-20.6v20.6
	h20.6V1338.9L776.8,1338.9z M805.7,1338.9h-20.5v20.6h20.5V1338.9L805.7,1338.9z M834.7,1338.9h-20.5v20.6h20.5V1338.9L834.7,1338.9
	z M863.6,1338.9H843v20.6h20.6V1338.9L863.6,1338.9z M892.5,1338.9H872v20.6h20.5V1338.9L892.5,1338.9z M950.4,1338.9h-20.6v20.6
	h20.6V1338.9L950.4,1338.9z M979.4,1338.9h-20.5v20.6h20.5V1338.9L979.4,1338.9z M1008.3,1338.9h-20.6v20.6h20.6V1338.9
	L1008.3,1338.9z M1037.3,1338.9h-20.5v20.6h20.5V1338.9L1037.3,1338.9z M1066.2,1338.9h-20.6v20.6h20.6V1338.9L1066.2,1338.9z
	 M1095.1,1338.9h-20.6v20.6h20.6V1338.9L1095.1,1338.9z M1124.1,1338.9h-20.6v20.6h20.6V1338.9L1124.1,1338.9z M1153,1338.9h-20.6
	v20.6h20.6V1338.9L1153,1338.9z M1210.9,1338.9h-20.6v20.6h20.6V1338.9L1210.9,1338.9z M1268.8,1338.9h-20.6v20.6h20.6V1338.9
	L1268.8,1338.9z M1297.7,1338.9h-20.6v20.6h20.6V1338.9L1297.7,1338.9z M1326.7,1338.9h-20.6v20.6h20.6V1338.9L1326.7,1338.9z
	 M1355.6,1338.9h-20.6v20.6h20.6V1338.9L1355.6,1338.9z M1384.6,1338.9H1364v20.6h20.6V1338.9L1384.6,1338.9z M1439.4,1418.2h-20.6
	v20.6h20.6V1418.2L1439.4,1418.2z M1425.7,1325.4h-20.6v20.6h20.6V1325.4L1425.7,1325.4z M1464.9,1373.3c4-5.1,8-10.3,11.9-15.6
	h-11.9V1373.3L1464.9,1373.3z M176.1,1390.4h-11.9c3.9,4.8,7.9,9.6,11.9,14.3V1390.4L176.1,1390.4z M226.9,1367.8h-20.6v20.6h20.6
	V1367.8L226.9,1367.8z M131.1,1368.5h-20.6v20.6h20.6V1368.5L131.1,1368.5z M342.6,1367.8h-20.6v20.6h20.6V1367.8L342.6,1367.8z
	 M429.5,1367.8h-20.6v20.6h20.6V1367.8L429.5,1367.8z M487.3,1367.8h-20.6v20.6h20.6V1367.8L487.3,1367.8z M545.2,1367.8h-20.5v20.6
	h20.5V1367.8L545.2,1367.8z M603.1,1367.8h-20.5v20.6h20.5V1367.8L603.1,1367.8z M632,1367.8h-20.6v20.6H632V1367.8L632,1367.8z
	 M689.9,1367.8h-20.6v20.6h20.6V1367.8L689.9,1367.8z M718.9,1367.8h-20.6v20.6h20.6V1367.8L718.9,1367.8z M805.7,1367.8h-20.5v20.6
	h20.5V1367.8L805.7,1367.8z M834.6,1367.8h-20.5v20.6h20.5V1367.8L834.6,1367.8z M892.5,1367.8H872v20.6h20.5V1367.8L892.5,1367.8z
	 M921.5,1367.8h-20.5v20.6h20.5V1367.8L921.5,1367.8z M979.4,1367.8h-20.5v20.6h20.5V1367.8L979.4,1367.8z M1008.3,1367.8h-20.6
	v20.6h20.6V1367.8L1008.3,1367.8z M1095.1,1367.8h-20.6v20.6h20.6V1367.8L1095.1,1367.8z M1124.1,1367.8h-20.6v20.6h20.6V1367.8
	L1124.1,1367.8z M1153,1367.8h-20.6v20.6h20.6V1367.8L1153,1367.8z M1210.9,1367.8h-20.6v20.6h20.6V1367.8L1210.9,1367.8z
	 M1239.8,1367.8h-20.6v20.6h20.6V1367.8L1239.8,1367.8z M1297.7,1367.8h-20.6v20.6h20.6V1367.8L1297.7,1367.8z M1326.7,1367.8h-20.6
	v20.6h20.6V1367.8L1326.7,1367.8z M1355.6,1367.8h-20.6v20.6h20.6V1367.8L1355.6,1367.8z M1552.4,1406.7h-20.6v20.6h20.6V1406.7
	L1552.4,1406.7z M1412.1,1419.7c5.9-6.8,11.7-13.6,17.3-20.6h-18.3v20.6H1412.1L1412.1,1419.7z M226,1420.2h-16.1
	c5.3,5.9,10.7,11.7,16.1,17.5V1420.2L226,1420.2z M279.5,1414.3H259v20.6h20.6V1414.3L279.5,1414.3z M191.8,1475.2h-20.6v20.6h20.6
	V1475.2L191.8,1475.2z M400.5,1396.7h-20.6v20.6h20.6V1396.7L400.5,1396.7z M458.4,1396.7h-20.5v20.6h20.5V1396.7L458.4,1396.7z
	 M516.3,1396.7h-20.6v20.6h20.6V1396.7L516.3,1396.7z M545.2,1396.7h-20.5v20.6h20.5V1396.7L545.2,1396.7z M603.1,1396.7h-20.5v20.6
	h20.5V1396.7L603.1,1396.7z M661,1396.7h-20.6v20.6H661V1396.7L661,1396.7z M718.9,1396.7h-20.6v20.6h20.6V1396.7L718.9,1396.7z
	 M747.8,1396.7h-20.6v20.6h20.6V1396.7L747.8,1396.7z M776.8,1396.7h-20.6v20.6h20.6V1396.7L776.8,1396.7z M805.7,1396.7h-20.5v20.6
	h20.5V1396.7L805.7,1396.7z M834.6,1396.7h-20.5v20.6h20.5V1396.7L834.6,1396.7z M863.6,1396.7H843v20.6h20.6V1396.7L863.6,1396.7z
	 M892.5,1396.7H872v20.6h20.5V1396.7L892.5,1396.7z M921.5,1396.7h-20.5v20.6h20.5V1396.7L921.5,1396.7z M950.4,1396.7h-20.6v20.6
	h20.6V1396.7L950.4,1396.7z M979.4,1396.7h-20.5v20.6h20.5V1396.7L979.4,1396.7z M1037.2,1396.7h-20.5v20.6h20.5V1396.7
	L1037.2,1396.7z M1066.2,1396.7h-20.6v20.6h20.6V1396.7L1066.2,1396.7z M1124.1,1396.7h-20.6v20.6h20.6V1396.7L1124.1,1396.7z
	 M1153,1396.7h-20.6v20.6h20.6V1396.7L1153,1396.7z M1182,1396.7h-20.6v20.6h20.6V1396.7L1182,1396.7z M1210.9,1396.7h-20.6v20.6
	h20.6V1396.7L1210.9,1396.7z M1297.7,1396.7h-20.6v20.6h20.6V1396.7L1297.7,1396.7z M1326.7,1396.7h-20.6v20.6h20.6V1396.7
	L1326.7,1396.7z M1355.6,1396.7h-20.6v20.6h20.6V1396.7L1355.6,1396.7z M1593.4,1378.4h-20.6v20.6h20.6V1378.4L1593.4,1378.4z
	 M248.2,1483.2h-17.9c5.9,5.9,11.8,11.8,17.9,17.5V1483.2L248.2,1483.2z M230.7,1494.1h-20.6v20.6h20.6V1494.1L230.7,1494.1z
	 M135.7,1431.4h-20.6v20.6h20.6V1431.4L135.7,1431.4z M212.1,1563.3h-20.6v20.6h20.6V1563.3L212.1,1563.3z M429.4,1425.7h-20.6v20.6
	h20.6V1425.7L429.4,1425.7z M458.3,1425.7h-20.5v20.6h20.5V1425.7L458.3,1425.7z M487.3,1425.7h-20.6v20.6h20.6V1425.7L487.3,1425.7
	z M545.2,1425.7h-20.5v20.6h20.5V1425.7L545.2,1425.7z M574.1,1425.7h-20.6v20.6h20.6V1425.7L574.1,1425.7z M603.1,1425.7h-20.5
	v20.6h20.5V1425.7L603.1,1425.7z M661,1425.7h-20.6v20.6H661V1425.7L661,1425.7z M689.9,1425.7h-20.6v20.6h20.6V1425.7L689.9,1425.7
	z M718.9,1425.7h-20.6v20.6h20.6V1425.7L718.9,1425.7z M747.8,1425.7h-20.6v20.6h20.6V1425.7L747.8,1425.7z M776.8,1425.7h-20.6
	v20.6h20.6V1425.7L776.8,1425.7z M834.6,1425.7h-20.5v20.6h20.5V1425.7L834.6,1425.7z M892.5,1425.7H872v20.6h20.5V1425.7
	L892.5,1425.7z M921.5,1425.7h-20.5v20.6h20.5V1425.7L921.5,1425.7z M950.4,1425.7h-20.6v20.6h20.6V1425.7L950.4,1425.7z
	 M979.3,1425.7h-20.5v20.6h20.5V1425.7L979.3,1425.7z M1037.2,1425.7h-20.5v20.6h20.5V1425.7L1037.2,1425.7z M1066.2,1425.7h-20.6
	v20.6h20.6V1425.7L1066.2,1425.7z M1095.1,1425.7h-20.6v20.6h20.6V1425.7L1095.1,1425.7z M1124.1,1425.7h-20.6v20.6h20.6V1425.7
	L1124.1,1425.7z M1153,1425.7h-20.6v20.6h20.6V1425.7L1153,1425.7z M1181.9,1425.7h-20.6v20.6h20.6V1425.7L1181.9,1425.7z
	 M1210.9,1425.7h-20.6v20.6h20.6V1425.7L1210.9,1425.7z M1239.8,1425.7h-20.6v20.6h20.6V1425.7L1239.8,1425.7z M1268.8,1425.7h-20.6
	v20.6h20.6V1425.7L1268.8,1425.7z M1297.7,1425.7h-20.6v20.6h20.6V1425.7L1297.7,1425.7z M1326.6,1425.7h-20.6v20.6h20.6V1425.7
	L1326.6,1425.7z M1355.6,1425.7H1335v20.6h20.6V1425.7L1355.6,1425.7z M1367.2,1446.2c5.9-5.5,11.6-11.1,17.3-16.8v-3.7H1364v20.6
	L1367.2,1446.2L1367.2,1446.2z M236.8,1449.4h-16.7c5.5,5,11.1,9.9,16.7,14.8V1449.4L236.8,1449.4z M311.8,1470.3h-20.6v20.6h20.6
	V1470.3L311.8,1470.3z M142.2,1520.9h-20.6v20.6h20.6V1520.9L142.2,1520.9z M376.3,1473.8h-20.6v20.6h20.6V1473.8L376.3,1473.8z
	 M516.2,1454.6h-20.6v20.6h20.6V1454.6L516.2,1454.6z M603.1,1454.6h-20.5v20.6h20.5V1454.6L603.1,1454.6z M632,1454.6h-20.6v20.6
	H632V1454.6L632,1454.6z M661,1454.6h-20.6v20.6H661V1454.6L661,1454.6z M718.9,1454.6h-20.6v20.6h20.6V1454.6L718.9,1454.6z
	 M747.8,1454.6h-20.6v20.6h20.6V1454.6L747.8,1454.6z M776.7,1454.6h-20.6v20.6h20.6V1454.6L776.7,1454.6z M863.6,1454.6H843v20.6
	h20.6V1454.6L863.6,1454.6z M921.4,1454.6h-20.5v20.6h20.5V1454.6L921.4,1454.6z M950.4,1454.6h-20.6v20.6h20.6V1454.6L950.4,1454.6
	z M979.3,1454.6h-20.5v20.6h20.5V1454.6L979.3,1454.6z M1066.2,1454.6h-20.6v20.6h20.6V1454.6L1066.2,1454.6z M1124.1,1454.6h-20.6
	v20.6h20.6V1454.6L1124.1,1454.6z M1267.6,1680.7h-20.6v20.6h20.6V1680.7L1267.6,1680.7z M1239.8,1454.6h-20.6v20.6h20.6V1454.6
	L1239.8,1454.6z M1268.8,1454.6h-20.6v20.6h20.6V1454.6L1268.8,1454.6z M311.8,1514h-12.1c4,3.3,8.1,6.5,12.1,9.7V1514L311.8,1514z
	 M322.7,1542h-20.6v16.2c1.9,1.4,3.8,2.9,5.6,4.3h14.9L322.7,1542L322.7,1542L322.7,1542z M361.1,1529.7h-20.6v20.5h20.6V1529.7
	L361.1,1529.7z M374.6,1584.5H354v20.5h20.6V1584.5L374.6,1584.5z M429.4,1483.6h-20.6v20.5h20.6V1483.6L429.4,1483.6z
	 M487.3,1483.6h-20.6v20.5h20.6V1483.6L487.3,1483.6z M516.3,1483.6h-20.6v20.5h20.6V1483.6L516.3,1483.6z M545.2,1483.6h-20.5v20.5
	h20.5V1483.6L545.2,1483.6z M574.1,1483.6h-20.6v20.5h20.6V1483.6L574.1,1483.6z M603.1,1483.6h-20.5v20.5h20.5V1483.6L603.1,1483.6
	z M661,1483.6h-20.6v20.5H661V1483.6L661,1483.6z M718.9,1483.6h-20.6v20.5h20.6V1483.6L718.9,1483.6z M776.7,1483.6h-20.6v20.5
	h20.6V1483.6L776.7,1483.6z M834.6,1483.6h-20.5v20.5h20.5V1483.6L834.6,1483.6z M863.6,1483.6H843v20.5h20.6V1483.6L863.6,1483.6z
	 M950.4,1483.6h-20.6v20.5h20.6V1483.6L950.4,1483.6z M979.3,1483.6h-20.5v20.5h20.5V1483.6L979.3,1483.6z M1037.2,1483.6h-20.5
	v20.5h20.5V1483.6L1037.2,1483.6z M1066.2,1483.6h-20.6v20.5h20.6V1483.6L1066.2,1483.6z M1095.1,1483.6h-20.6v20.5h20.6V1483.6
	L1095.1,1483.6z M1124.1,1483.6h-20.6v20.5h20.6V1483.6L1124.1,1483.6z M1153,1483.6h-20.6v20.5h20.6V1483.6L1153,1483.6z
	 M1210.9,1483.6h-20.6v20.5h20.6V1483.6L1210.9,1483.6z M1332.5,1521.4H1312v20.5h20.6V1521.4L1332.5,1521.4z M1268.8,1483.6h-20.6
	v20.5h20.6V1483.6L1268.8,1483.6z M1297.7,1483.6h-20.6v20.5h20.6V1483.6L1297.7,1483.6z M273.9,1552.9h-20.6v20.6h20.6V1552.9
	L273.9,1552.9z M429.4,1512.5h-20.6v20.6h20.6V1512.5L429.4,1512.5z M458.4,1512.5h-20.5v20.6h20.5V1512.5L458.4,1512.5z
	 M574.1,1512.5h-20.6v20.6h20.6V1512.5L574.1,1512.5z M603.1,1512.5h-20.5v20.6h20.5V1512.5L603.1,1512.5z M632,1512.5h-20.6v20.6
	H632V1512.5L632,1512.5z M661,1512.5h-20.6v20.6H661V1512.5L661,1512.5z M689.9,1512.5h-20.6v20.6h20.6V1512.5L689.9,1512.5z
	 M718.9,1512.5h-20.6v20.6h20.6V1512.5L718.9,1512.5z M776.8,1512.5h-20.6v20.6h20.6V1512.5L776.8,1512.5z M805.7,1512.5h-20.5v20.6
	h20.5V1512.5L805.7,1512.5z M861.1,1712.1h-20.5v20.6h20.5V1712.1L861.1,1712.1z M950.4,1512.5h-20.6v20.6h20.6V1512.5L950.4,1512.5
	z M979.3,1512.5h-20.5v20.6h20.5V1512.5L979.3,1512.5z M1066.2,1512.5h-20.6v20.6h20.6V1512.5L1066.2,1512.5z M1095.1,1512.5h-20.6
	v20.6h20.6V1512.5L1095.1,1512.5z M1153,1512.5h-20.6v20.6h20.6V1512.5L1153,1512.5z M1182,1512.5h-20.6v20.6h20.6V1512.5
	L1182,1512.5z M1239.8,1512.5h-20.6v20.6h20.6V1512.5L1239.8,1512.5z M1277.2,1519.6c3.3-2.3,6.7-4.7,9.9-7.1h-9.9V1519.6
	L1277.2,1519.6z M1308.5,1584.2c3.8-2.5,7.6-5.1,11.4-7.7v-12.9h-20.6v20.6L1308.5,1584.2L1308.5,1584.2z M429.5,1541.5h-20.6v16.4
	c2.4,1.4,4.8,2.8,7.2,4.1h13.4V1541.5L429.5,1541.5L429.5,1541.5z M458.4,1541.5h-20.5v20.6h20.5V1541.5L458.4,1541.5z
	 M487.3,1541.5h-20.6v20.6h20.6V1541.5L487.3,1541.5z M516.3,1541.5h-20.6v20.6h20.6V1541.5L516.3,1541.5z M603.1,1541.5h-20.5v20.6
	h20.5V1541.5L603.1,1541.5z M632,1541.5h-20.6v20.6H632V1541.5L632,1541.5z M661,1541.5h-20.6v20.6H661V1541.5L661,1541.5z
	 M718.9,1541.5h-20.6v20.6h20.6V1541.5L718.9,1541.5z M747.8,1541.5h-20.6v20.6h20.6V1541.5L747.8,1541.5z M776.8,1541.5h-20.6v20.6
	h20.6V1541.5L776.8,1541.5z M805.7,1541.5h-20.5v20.6h20.5V1541.5L805.7,1541.5z M834.6,1541.5h-20.5v20.6h20.5V1541.5L834.6,1541.5
	z M863.6,1541.5H843v20.6h20.6V1541.5L863.6,1541.5z M892.5,1541.5H872v20.6h20.5V1541.5L892.5,1541.5z M921.5,1541.5h-20.5v20.6
	h20.5V1541.5L921.5,1541.5z M919.2,1700.4h-20.6v20.6h20.6V1700.4L919.2,1700.4z M979.4,1541.5h-20.5v20.6h20.5V1541.5L979.4,1541.5
	z M1008.3,1541.5h-20.6v20.6h20.6V1541.5L1008.3,1541.5z M1037.2,1541.5h-20.5v20.6h20.5V1541.5L1037.2,1541.5z M1066.2,1541.5
	h-20.6v20.6h20.6V1541.5L1066.2,1541.5z M1095.1,1541.5h-20.6v20.6h20.6V1541.5L1095.1,1541.5z M1116.5,1708.9h-20.6v20.6h20.6
	V1708.9L1116.5,1708.9z M1218.9,1560.3h-20.6v20.6h20.6V1560.3L1218.9,1560.3z M1219.3,1556.8c6.9-4,13.8-8.2,20.6-12.4v-2.9h-20.6
	V1556.8L1219.3,1556.8z M458.4,1570.4h-20.5v3.4c6.8,3.6,13.6,7.1,20.5,10.4V1570.4L458.4,1570.4L458.4,1570.4z M487.3,1570.4h-20.6
	v17.9c1.9,0.9,3.8,1.8,5.6,2.6h14.9V1570.4L487.3,1570.4L487.3,1570.4z M545.2,1570.4h-20.5v20.6h20.5V1570.4L545.2,1570.4z
	 M574.1,1570.4h-20.6v20.6h20.6V1570.4L574.1,1570.4z M603.1,1570.4h-20.5v20.6h20.5V1570.4L603.1,1570.4z M661,1570.4h-20.6v20.6
	H661V1570.4L661,1570.4z M689.9,1570.4h-20.6v20.6h20.6V1570.4L689.9,1570.4z M747.8,1570.4h-20.6v20.6h20.6V1570.4L747.8,1570.4z
	 M776.8,1570.4h-20.6v20.6h20.6V1570.4L776.8,1570.4z M834.6,1570.4h-20.5v20.6h20.5V1570.4L834.6,1570.4z M921.5,1570.4h-20.5v20.6
	h20.5V1570.4L921.5,1570.4z M1008.3,1570.4h-20.6v20.6h20.6V1570.4L1008.3,1570.4z M1121.7,1649.5h-20.6v20.6h20.6V1649.5
	L1121.7,1649.5z M1206.7,1718.9h-20.6v20.6h20.6V1718.9L1206.7,1718.9z M1124.1,1570.4h-20.6v20.6h20.6V1570.4L1124.1,1570.4z
	 M1161.4,1587.4c6.9-3.3,13.8-6.7,20.6-10.2v-6.8h-20.6V1587.4L1161.4,1587.4z M516.3,1599.3h-20.6v2c6.8,2.9,13.7,5.7,20.6,8.4
	V1599.3L516.3,1599.3z M545.2,1599.3h-20.5v13.7c6.2,2.4,12.3,4.6,18.6,6.8h2L545.2,1599.3L545.2,1599.3L545.2,1599.3z M632,1599.3
	h-20.6v20.6H632V1599.3L632,1599.3z M661,1599.3h-20.6v20.6H661V1599.3L661,1599.3z M718.9,1599.3h-20.6v20.6h20.6V1599.3
	L718.9,1599.3z M747.8,1599.3h-20.6v20.6h20.6V1599.3L747.8,1599.3z M776.8,1599.3h-20.6v20.6h20.6V1599.3L776.8,1599.3z
	 M805.7,1599.3h-20.5v20.6h20.5V1599.3L805.7,1599.3z M834.6,1599.3h-20.5v20.6h20.5V1599.3L834.6,1599.3z M863.6,1599.3H843v20.6
	h20.6V1599.3L863.6,1599.3z M979.4,1599.3h-20.5v20.6h20.5V1599.3L979.4,1599.3z M1144.8,1613h-20.6v20.6h20.6V1613L1144.8,1613z
	 M1066.2,1599.3h-20.6v20.6h20.6V1599.3L1066.2,1599.3z M1073.7,1649.3c6.9-2.7,13.8-5.4,20.6-8.2v-4.7h-20.6V1649.3L1073.7,1649.3z
	 M574.2,1628.3h-6c2,0.6,4,1.3,6,1.9V1628.3L574.2,1628.3z M603.1,1628.3h-20.5v4.4c6.8,2,13.7,4,20.5,5.8V1628.3L603.1,1628.3
	L603.1,1628.3z M661,1628.3h-20.6v19.3c2,0.4,3.9,0.8,5.9,1.3H661L661,1628.3L661,1628.3L661,1628.3z M718.9,1628.3h-20.6v20.6h20.6
	V1628.3L718.9,1628.3z M900.5,1748.4h-20.5v20.6h20.5V1748.4L900.5,1748.4z M950.8,1670.8h-20.6v20.6h20.6V1670.8L950.8,1670.8z
	 M950.4,1628.3h-20.6v20.6h20.6V1628.3L950.4,1628.3z M979.3,1628.3h-20.5v20.6h20.5V1628.3L979.3,1628.3z M1032,1669.8
	c4.1-1.2,8.3-2.5,12.4-3.8H1032V1669.8L1032,1669.8z M1031.6,1652.5c6.9-1.8,13.7-3.7,20.6-5.6v-6.3h-20.6V1652.5L1031.6,1652.5
	L1031.6,1652.5z M960.5,1721.2c6.9-1.5,13.7-3.1,20.6-4.8v-14.1h-20.6V1721.2L960.5,1721.2z M718.9,1657.2h-20.6v0.8
	c6.8,1,13.7,1.9,20.6,2.7V1657.2L718.9,1657.2L718.9,1657.2z M776.7,1657.2h-20.6v6.9c6.8,0.5,13.7,0.9,20.6,1.2V1657.2
	L776.7,1657.2z M805.7,1657.2h-20.5v8.4c6.8,0.2,13.7,0.4,20.5,0.4V1657.2L805.7,1657.2L805.7,1657.2z M857.2,1701.5
	c6.9-0.2,13.7-0.6,20.5-1v-7.3h-20.5V1701.5L857.2,1701.5z M1025.4,1021.6h-20.5V1001h20.5V1021.6L1025.4,1021.6z M26.9,670.9H8.9
	c1.9-6.8,4-13.5,6.1-20.2h11.9V670.9L26.9,670.9z M820.5,919.8H800v20.2h20.6V919.8L820.5,919.8z M740.8,844.6h-20.6v20.2h20.6
	V844.6L740.8,844.6z M1564.4,919.3h-20.6v20.2h20.6V919.3L1564.4,919.3z M847.1,961.6h-20.6v20.5h20.6V961.6L847.1,961.6z
	 M376.8,913.3h-20.6v20.5h20.6V913.3L376.8,913.3z M911.7,820.9h-20.6v20.5h20.6V820.9L911.7,820.9z M1001.3,918.9h-20.5v20.5h20.5
	V918.9L1001.3,918.9z M613.6,898.8H593v20.6h20.6V898.8L613.6,898.8z M1333.4,810.7h-20.6v20.6h20.6V810.7L1333.4,810.7z
	 M618.7,974.4h-20.6v20.6h20.6V974.4L618.7,974.4z M918.5,958.8H898v20.5h20.6V958.8L918.5,958.8z M1246.6,944.5h-20.6V965h20.6
	V944.5L1246.6,944.5z M482.8,887.6h-20.6v20.6h20.6V887.6L482.8,887.6z M139,724.9h-20.6v-20.2H139V724.9L139,724.9z M111.2,636.6
	H90.6v-20.2h20.6V636.6L111.2,636.6z M140.1,636.6h-20.5v-20.2h20.5V636.6L140.1,636.6z M169.1,636.6h-20.6v-20.2h20.6V636.6
	L169.1,636.6z M198,636.6h-20.6v-20.2H198V636.6L198,636.6z M227,636.6h-20.6v-20.2H227V636.6L227,636.6z M284.8,636.6h-20.6v-20.2
	h20.6V636.6L284.8,636.6z M342.7,636.6h-20.6v-20.2h20.6V636.6L342.7,636.6z M371.7,636.6h-20.6v-20.2h20.6V636.6L371.7,636.6z
	 M429.6,636.6H409v-20.2h20.6V636.6L429.6,636.6z M487.4,636.6h-20.6v-20.2h20.6V636.6L487.4,636.6z M549.7,696.4h-20.6v-20.2h20.6
	V696.4L549.7,696.4z M545.3,636.6h-20.5v-20.2h20.5V636.6L545.3,636.6z M570.3,753.3h-20.6v-20.2h20.6V753.3L570.3,753.3z
	 M294.9,766.5h-20.5v-20.2h20.5V766.5L294.9,766.5z M632.2,636.6h-20.6v-20.2h20.6V636.6L632.2,636.6z M661.1,636.6h-20.6v-20.2
	h20.6V636.6L661.1,636.6z M747.9,636.6h-20.6v-20.2h20.6V636.6L747.9,636.6z M776.9,636.6h-20.6v-20.2h20.6V636.6L776.9,636.6z
	 M863.7,636.6h-20.6v-20.2h20.6V636.6L863.7,636.6z M892.6,636.6h-20.5v-20.2h20.5V636.6L892.6,636.6z M1037.4,636.6h-20.5v-20.2
	h20.5V636.6L1037.4,636.6z M1066.3,636.6h-20.6v-20.2h20.6V636.6L1066.3,636.6z M904.7,711.6h-20.6v-20.2h20.6V711.6L904.7,711.6z
	 M1124.2,636.6h-20.6v-20.2h20.6V636.6L1124.2,636.6z M1103.6,671.2H1083V651h20.6V671.2L1103.6,671.2z M1240,636.6h-20.6v-20.2
	h20.6V636.6L1240,636.6z M1268.9,636.6h-20.6v-20.2h20.6V636.6L1268.9,636.6z M1297.8,636.6h-20.6v-20.2h20.6V636.6L1297.8,636.6z
	 M1326.8,636.6h-20.6v-20.2h20.6V636.6L1326.8,636.6z M1355.7,636.6h-20.6v-20.2h20.6V636.6L1355.7,636.6z M1413.6,636.6h-20.6
	v-20.2h20.6V636.6L1413.6,636.6z M1442.6,636.6H1422v-20.2h20.6V636.6L1442.6,636.6z M1471.5,636.6h-20.6v-20.2h20.6V636.6
	L1471.5,636.6z M1500.4,636.6h-20.6v-20.2h20.6V636.6L1500.4,636.6z M1560.6,645.8H1540v-20.2h20.6V645.8L1560.6,645.8z M53.3,607.9
	h-9.2c2.2-6.9,4.5-13.7,7-20.5h2.2L53.3,607.9C53.3,607.9,53.3,607.9,53.3,607.9z M82.2,607.9H61.7v-20.5h20.5V607.9L82.2,607.9z
	 M227,607.9h-20.6v-20.5H227V607.9L227,607.9z M284.8,607.9h-20.6v-20.5h20.6V607.9L284.8,607.9z M313.8,607.9h-20.6v-20.5h20.6
	V607.9L313.8,607.9z M409.6,690.4H389v-20.5h20.6V690.4L409.6,690.4z M353.4,677.5h-20.6v-20.5h20.6V677.5L353.4,677.5z
	 M429.6,607.9H409v-20.5h20.6V607.9L429.6,607.9z M516.4,607.9h-20.6v-20.5h20.6V607.9L516.4,607.9z M637.3,705.1h-20.5v-20.5h20.5
	V705.1L637.3,705.1z M574.3,607.9h-20.6v-20.5h20.6V607.9L574.3,607.9z M603.2,607.9h-20.5v-20.5h20.5V607.9L603.2,607.9z
	 M632.2,607.9h-20.6v-20.5h20.6V607.9L632.2,607.9z M719,607.9h-20.6v-20.5H719V607.9L719,607.9z M747.9,607.9h-20.6v-20.5h20.6
	V607.9L747.9,607.9z M776.9,607.9h-20.6v-20.5h20.6V607.9L776.9,607.9z M805.8,607.9h-20.5v-20.5h20.5V607.9L805.8,607.9z
	 M834.7,607.9h-20.5v-20.5h20.5V607.9L834.7,607.9z M863.7,607.9h-20.6v-20.5h20.6V607.9L863.7,607.9z M892.6,607.9h-20.5v-20.5
	h20.5V607.9L892.6,607.9z M921.6,607.9H901v-20.5h20.5V607.9L921.6,607.9z M1008.4,607.9h-20.6v-20.5h20.6V607.9L1008.4,607.9z
	 M1037.3,607.9h-20.5v-20.5h20.5V607.9L1037.3,607.9z M1066.3,607.9h-20.6v-20.5h20.6V607.9L1066.3,607.9z M1095.2,607.9h-20.6
	v-20.5h20.6V607.9L1095.2,607.9z M1124.2,607.9h-20.6v-20.5h20.6V607.9L1124.2,607.9z M1040.8,677.3h-20.6v-20.5h20.6V677.3
	L1040.8,677.3z M1182,607.9h-20.6v-20.5h20.6V607.9L1182,607.9z M1211,607.9h-20.6v-20.5h20.6V607.9L1211,607.9z M1239.9,607.9
	h-20.6v-20.5h20.6V607.9L1239.9,607.9z M1345,696.8h-20.6v-20.5h20.6V696.8L1345,696.8z M1297.8,607.9h-20.6v-20.5h20.6V607.9
	L1297.8,607.9z M1384.6,607.9h-20.6v-20.5h20.6V607.9L1384.6,607.9z M1413.6,607.9H1393v-20.5h20.6V607.9L1413.6,607.9z
	 M1471.5,607.9h-20.6v-20.5h20.6V607.9L1471.5,607.9z M1500.4,607.9h-20.6v-20.5h20.6V607.9L1500.4,607.9z M1529.4,607.9h-20.6
	v-20.5h20.6V607.9L1529.4,607.9z M1591.5,612.8c2.4,6.8,4.7,13.7,7,20.5h-15.6v-20.5H1591.5z M20.6,587.8H0V568l0.3-0.7h20.3V587.8
	L20.6,587.8L20.6,587.8z M140.1,579h-20.5v-20.5h20.5V579L140.1,579z M169.1,579h-20.6v-20.5h20.6V579L169.1,579z M198,579h-20.6
	v-20.5H198V579L198,579z M255.9,579h-20.6v-20.5h20.6V579L255.9,579z M371.7,579h-20.6v-20.5h20.6V579L371.7,579z M400.6,579H380
	v-20.5h20.6V579L400.6,579z M429.6,579H409v-20.5h20.6V579L429.6,579z M487.4,579h-20.6v-20.5h20.6V579L487.4,579z M516.4,579h-20.6
	v-20.5h20.6V579L516.4,579z M545.3,579h-20.5v-20.5h20.5V579L545.3,579z M603.2,579h-20.5v-20.5h20.5V579L603.2,579z M690,579h-20.6
	v-20.5H690V579L690,579z M747.9,579h-20.6v-20.5h20.6V579L747.9,579z M776.9,579h-20.6v-20.5h20.6V579L776.9,579z M834.7,579h-20.5
	v-20.5h20.5V579L834.7,579z M892.6,579h-20.5v-20.5h20.5V579L892.6,579z M921.6,579H901v-20.5h20.5V579L921.6,579z M950.5,579H930
	v-20.5h20.6V579L950.5,579z M979.5,579h-20.5v-20.5h20.5V579L979.5,579z M1037.3,579h-20.5v-20.5h20.5V579L1037.3,579z M1066.3,579
	h-20.6v-20.5h20.6V579L1066.3,579z M1170.4,682.5h-20.6v-20.5h20.6V682.5L1170.4,682.5z M1124.2,579h-20.6v-20.5h20.6V579
	L1124.2,579z M1153.1,579h-20.6v-20.5h20.6V579L1153.1,579z M1211,579h-20.6v-20.5h20.6V579L1211,579z M1297.8,579h-20.6v-20.5h20.6
	V579L1297.8,579z M1326.8,579h-20.6v-20.5h20.6V579L1326.8,579z M1355.7,579h-20.6v-20.5h20.6V579L1355.7,579z M1413.6,579H1393
	v-20.5h20.6V579L1413.6,579z M1442.5,579H1422v-20.5h20.6V579L1442.5,579z M1558.3,579h-20.6v-20.5h20.6V579L1558.3,579z
	 M1566.7,564.2c1.9,4.9,3.8,9.9,5.6,14.8h-5.6V564.2L1566.7,564.2z M82.2,550.1H65.4c2.8-6.9,5.8-13.8,8.8-20.6h8.1L82.2,550.1
	L82.2,550.1L82.2,550.1z M111.2,550.1H90.6v-20.6h20.6V550.1L111.2,550.1z M140.1,550.1h-20.5v-20.6h20.5V550.1L140.1,550.1z
	 M226.9,550.1h-20.6v-20.6h20.6V550.1L226.9,550.1z M255.9,550.1h-20.6v-20.6h20.6V550.1L255.9,550.1z M284.8,550.1h-20.6v-20.6
	h20.6V550.1L284.8,550.1z M342.7,550.1h-20.6v-20.6h20.6V550.1L342.7,550.1z M371.6,550.1h-20.6v-20.6h20.6V550.1L371.6,550.1z
	 M458.5,550.1h-20.5v-20.6h20.5V550.1L458.5,550.1z M516.4,550.1h-20.6v-20.6h20.6V550.1L516.4,550.1z M545.3,550.1h-20.5v-20.6
	h20.5V550.1L545.3,550.1z M574.2,550.1h-20.6v-20.6h20.6V550.1L574.2,550.1z M603.2,550.1h-20.5v-20.6h20.5V550.1L603.2,550.1z
	 M632.1,550.1h-20.6v-20.6h20.6V550.1L632.1,550.1z M661.1,550.1h-20.6v-20.6h20.6V550.1L661.1,550.1z M690,550.1h-20.6v-20.6H690
	V550.1L690,550.1z M747.9,550.1h-20.6v-20.6h20.6V550.1L747.9,550.1z M776.8,550.1h-20.6v-20.6h20.6V550.1L776.8,550.1z
	 M834.7,550.1h-20.5v-20.6h20.5V550.1L834.7,550.1z M863.7,550.1h-20.6v-20.6h20.6V550.1L863.7,550.1z M892.6,550.1h-20.5v-20.6
	h20.5V550.1L892.6,550.1z M950.5,550.1h-20.6v-20.6h20.6V550.1L950.5,550.1z M979.4,550.1h-20.5v-20.6h20.5V550.1L979.4,550.1z
	 M1037.3,550.1h-20.5v-20.6h20.5V550.1L1037.3,550.1z M1095.2,550.1h-20.6v-20.6h20.6V550.1L1095.2,550.1z M1124.1,550.1h-20.6
	v-20.6h20.6V550.1L1124.1,550.1z M1182,550.1h-20.6v-20.6h20.6V550.1L1182,550.1z M1211,550.1h-20.6v-20.6h20.6V550.1L1211,550.1z
	 M1239.9,550.1h-20.6v-20.6h20.6V550.1L1239.9,550.1z M1268.8,550.1h-20.6v-20.6h20.6V550.1L1268.8,550.1z M1326.7,550.1h-20.6
	v-20.6h20.6V550.1L1326.7,550.1z M1442.5,550.1h-20.6v-20.6h20.6V550.1L1442.5,550.1z M1471.4,550.1h-20.6v-20.6h20.6V550.1
	L1471.4,550.1z M1500.4,550.1h-20.6v-20.6h20.6V550.1L1500.4,550.1z M1630.9,626.3h-20.6v-20.6h20.6V626.3L1630.9,626.3z
	 M82.2,521.1H78c1.4-3.1,2.8-6.1,4.2-9.1V521.1L82.2,521.1z M169.1,521.1h-20.6v-20.6h20.6V521.1L169.1,521.1z M198,521.1h-20.6
	v-20.6H198V521.1L198,521.1z M255.9,521.1h-20.6v-20.6h20.6V521.1L255.9,521.1z M284.8,521.1h-20.6v-20.6h20.6V521.1L284.8,521.1z
	 M313.8,521.1h-20.6v-20.6h20.6V521.1L313.8,521.1z M342.7,521.1h-20.6v-20.6h20.6V521.1L342.7,521.1z M371.7,521.1h-20.6v-20.6
	h20.6V521.1L371.7,521.1z M400.6,521.1H380v-20.6h20.6V521.1L400.6,521.1z M516.4,521.1h-20.6v-20.6h20.6V521.1L516.4,521.1z
	 M545.3,521.1h-20.5v-20.6h20.5V521.1L545.3,521.1z M603.2,521.1h-20.5v-20.6h20.5V521.1L603.2,521.1z M632.2,521.1h-20.6v-20.6
	h20.6V521.1L632.2,521.1z M661.1,521.1h-20.6v-20.6h20.6V521.1L661.1,521.1z M719,521.1h-20.6v-20.6H719V521.1L719,521.1z
	 M747.9,521.1h-20.6v-20.6h20.6V521.1L747.9,521.1z M776.9,521.1h-20.6v-20.6h20.6V521.1L776.9,521.1z M805.8,521.1h-20.5v-20.6
	h20.5V521.1L805.8,521.1z M834.7,521.1h-20.5v-20.6h20.5V521.1L834.7,521.1z M921.6,521.1H901v-20.6h20.5V521.1L921.6,521.1z
	 M979.5,521.1h-20.5v-20.6h20.5V521.1L979.5,521.1z M1008.4,521.1h-20.6v-20.6h20.6V521.1L1008.4,521.1z M1109.7,788.9h-20.6v-20.6
	h20.6V788.9L1109.7,788.9z M1066.3,521.1h-20.6v-20.6h20.6V521.1L1066.3,521.1z M1095.2,521.1h-20.6v-20.6h20.6V521.1L1095.2,521.1z
	 M1153.1,521.1h-20.6v-20.6h20.6V521.1L1153.1,521.1z M1211,521.1h-20.6v-20.6h20.6V521.1L1211,521.1z M1239.9,521.1h-20.6v-20.6
	h20.6V521.1L1239.9,521.1z M1297.8,521.1h-20.6v-20.6h20.6V521.1L1297.8,521.1z M1326.8,521.1h-20.6v-20.6h20.6V521.1L1326.8,521.1z
	 M1384.7,521.1h-20.6v-20.6h20.6V521.1L1384.7,521.1z M1413.6,521.1H1393v-20.6h20.6V521.1L1413.6,521.1z M1471.5,521.1h-20.6v-20.6
	h20.6V521.1L1471.5,521.1z M1533.9,495.7h-20.6v-20.6h20.6V495.7L1533.9,495.7z M1628.7,559.2h-20.6v-20.6h20.6V559.2L1628.7,559.2z
	 M1538.7,500.6c3.3,6.8,6.6,13.7,9.8,20.6h-10.7v-20.6H1538.7z M111.2,492.2H91.9c3.5-6.9,7.1-13.8,10.8-20.6h8.5L111.2,492.2
	L111.2,492.2L111.2,492.2z M169,492.2h-20.6v-20.6H169V492.2L169,492.2z M255.9,492.2h-20.6v-20.6h20.6V492.2L255.9,492.2z
	 M284.8,492.2h-20.6v-20.6h20.6V492.2L284.8,492.2z M313.8,492.2h-20.6v-20.6h20.6V492.2L313.8,492.2z M342.7,492.2h-20.6v-20.6
	h20.6V492.2L342.7,492.2z M716.7,791.3h-20.6v-20.6h20.6V791.3L716.7,791.3z M400.6,492.2H380v-20.6h20.6V492.2L400.6,492.2z
	 M429.6,492.2H409v-20.6h20.6V492.2L429.6,492.2z M458.5,492.2h-20.5v-20.6h20.5V492.2L458.5,492.2z M487.4,492.2h-20.6v-20.6h20.6
	V492.2L487.4,492.2z M574.3,492.2h-20.6v-20.6h20.6V492.2L574.3,492.2z M632.2,492.2h-20.6v-20.6h20.6V492.2L632.2,492.2z
	 M661.1,492.2h-20.6v-20.6h20.6V492.2L661.1,492.2z M690.1,492.2h-20.6v-20.6h20.6V492.2L690.1,492.2z M719,492.2h-20.6v-20.6H719
	V492.2L719,492.2z M776.9,492.2h-20.6v-20.6h20.6V492.2L776.9,492.2z M863.7,492.2h-20.6v-20.6h20.6V492.2L863.7,492.2z
	 M892.6,492.2h-20.5v-20.6h20.5V492.2L892.6,492.2z M950.5,492.2H930v-20.6h20.6V492.2L950.5,492.2z M979.5,492.2h-20.5v-20.6h20.5
	V492.2L979.5,492.2z M1066.3,492.2h-20.6v-20.6h20.6V492.2L1066.3,492.2z M1095.3,492.2h-20.6v-20.6h20.6V492.2L1095.3,492.2z
	 M1124.2,492.2h-20.6v-20.6h20.6V492.2L1124.2,492.2z M1153.1,492.2h-20.6v-20.6h20.6V492.2L1153.1,492.2z M1217.9,696.6h-20.6V676
	h20.6V696.6L1217.9,696.6z M1240,492.2h-20.6v-20.6h20.6V492.2L1240,492.2z M1268.9,492.2h-20.6v-20.6h20.6V492.2L1268.9,492.2z
	 M1355.7,492.2h-20.6v-20.6h20.6V492.2L1355.7,492.2z M1384.7,492.2h-20.6v-20.6h20.6V492.2L1384.7,492.2z M1413.6,492.2H1393v-20.6
	h20.6V492.2L1413.6,492.2z M1442.5,492.2H1422v-20.6h20.6V492.2L1442.5,492.2z M1608.9,455.2h-20.6v-20.6h20.6V455.2L1608.9,455.2z
	 M1502.7,506h-20.6v-20.6h20.6V506L1502.7,506z M1560.6,407c1.9,3.5,3.8,7.1,5.7,10.7v9.9h-20.6V407L1560.6,407L1560.6,407z
	 M111.2,463.2h-3.8c1.2-2.2,2.5-4.5,3.8-6.7V463.2L111.2,463.2z M140.1,463.2h-20.5v-20.6h20.5V463.2L140.1,463.2z M198,463.2h-20.6
	v-20.6H198V463.2L198,463.2z M227,463.2h-20.6v-20.6H227V463.2L227,463.2z M284.8,463.2h-20.6v-20.6h20.6V463.2L284.8,463.2z
	 M342.7,463.2h-20.6v-20.6h20.6V463.2L342.7,463.2z M371.7,463.2h-20.6v-20.6h20.6V463.2L371.7,463.2z M458.5,463.2h-20.5v-20.6
	h20.5V463.2L458.5,463.2z M487.4,463.2h-20.6v-20.6h20.6V463.2L487.4,463.2z M516.4,463.2h-20.6v-20.6h20.6V463.2L516.4,463.2z
	 M574.3,463.2h-20.6v-20.6h20.6V463.2L574.3,463.2z M603.2,463.2h-20.5v-20.6h20.5V463.2L603.2,463.2z M1008.4,463.2h-20.6v-20.6
	h20.6V463.2L1008.4,463.2z M1066.3,463.2h-20.6v-20.6h20.6V463.2L1066.3,463.2z M1124.2,463.2h-20.6v-20.6h20.6V463.2L1124.2,463.2z
	 M1227.4,821h-20.6v-20.6h20.6V821L1227.4,821z M1182,463.2h-20.6v-20.6h20.6V463.2L1182,463.2z M1211,463.2h-20.6v-20.6h20.6V463.2
	L1211,463.2z M1239.9,463.2h-20.6v-20.6h20.6V463.2L1239.9,463.2z M1297.8,463.2h-20.6v-20.6h20.6V463.2L1297.8,463.2z M1467,678
	h-20.6v-20.6h20.6V678L1467,678z M1413.6,463.2H1393v-20.6h20.6V463.2L1413.6,463.2z M1442.5,463.2H1422v-20.6h20.6V463.2
	L1442.5,463.2z M1530.4,396.3h-20.6v-20.6h20.6V396.3L1530.4,396.3z M1577.8,492.1h-20.6v-20.6h20.6V492.1L1577.8,492.1z
	 M1508.8,445.5c3.5,5.9,6.9,11.8,10.2,17.7h-10.2V445.5L1508.8,445.5z M140.1,434.3h-15.7c4.3-6.9,8.6-13.8,13.1-20.6h2.6V434.3
	L140.1,434.3z M198,434.3h-20.6v-20.6H198V434.3L198,434.3z M226.9,434.3h-20.6v-20.6h20.6V434.3L226.9,434.3z M284.8,434.3h-20.6
	v-20.6h20.6V434.3L284.8,434.3z M313.8,434.3h-20.6v-20.6h20.6V434.3L313.8,434.3z M371.6,434.3h-20.6v-20.6h20.6V434.3L371.6,434.3
	z M429.5,434.3H409v-20.6h20.6V434.3L429.5,434.3z M458.4,434.3h-20.5v-20.6h20.5V434.3L458.4,434.3z M516.3,434.3h-20.6v-20.6h20.6
	V434.3L516.3,434.3z M545.3,434.3h-20.5v-20.6h20.5V434.3L545.3,434.3z M574.2,434.3h-20.6v-20.6h20.6V434.3L574.2,434.3z
	 M632.1,434.3h-20.6v-20.6h20.6V434.3L632.1,434.3z M1037.3,434.3h-20.5v-20.6h20.5V434.3L1037.3,434.3z M1066.3,434.3h-20.6v-20.6
	h20.6V434.3L1066.3,434.3z M1095.2,434.3h-20.6v-20.6h20.6V434.3L1095.2,434.3z M1153.1,434.3h-20.6v-20.6h20.6V434.3L1153.1,434.3z
	 M1182,434.3h-20.6v-20.6h20.6V434.3L1182,434.3z M1211,434.3h-20.6v-20.6h20.6V434.3L1211,434.3z M1268.9,434.3h-20.6v-20.6h20.6
	V434.3L1268.9,434.3z M1297.8,434.3h-20.6v-20.6h20.6V434.3L1297.8,434.3z M1384.6,434.3h-20.6v-20.6h20.6V434.3L1384.6,434.3z
	 M1413.6,434.3H1393v-20.6h20.6V434.3L1413.6,434.3z M1559.2,277.9h-20.6v-20.6h20.6V277.9L1559.2,277.9z M1468.1,436.8
	c3.9,6,7.7,12,11.5,18v2.5h-20.6v-20.6H1468.1L1468.1,436.8z M169,405.3h-20.6v-7.9c3-4.3,5.9-8.5,9-12.7H169L169,405.3L169,405.3
	L169,405.3z M198,405.3h-20.6v-20.6H198V405.3L198,405.3z M194.6,372.9H174v-20.6h20.6V372.9L194.6,372.9z M255.8,405.3h-20.6v-20.6
	h20.6V405.3L255.8,405.3z M284.8,405.3h-20.6v-20.6h20.6V405.3L284.8,405.3z M313.8,405.3h-20.6v-20.6h20.6V405.3L313.8,405.3z
	 M371.6,405.3h-20.6v-20.6h20.6V405.3L371.6,405.3z M429.5,405.3H409v-20.6h20.6V405.3L429.5,405.3z M458.4,405.3h-20.5v-20.6h20.5
	V405.3L458.4,405.3z M487.4,405.3h-20.6v-20.6h20.6V405.3L487.4,405.3z M545.3,405.3h-20.5v-20.6h20.5V405.3L545.3,405.3z
	 M632.1,405.3h-20.6v-20.6h20.6V405.3L632.1,405.3z M1037.3,405.3h-20.5v-20.6h20.5V405.3L1037.3,405.3z M1095.2,405.3h-20.6v-20.6
	h20.6V405.3L1095.2,405.3z M1153.1,405.3h-20.6v-20.6h20.6V405.3L1153.1,405.3z M1182,405.3h-20.6v-20.6h20.6V405.3L1182,405.3z
	 M1239.9,405.3h-20.6v-20.6h20.6V405.3L1239.9,405.3z M1268.9,405.3h-20.6v-20.6h20.6V405.3L1268.9,405.3z M1326.7,405.3h-20.6
	v-20.6h20.6V405.3L1326.7,405.3z M1384.6,405.3h-20.6v-20.6h20.6V405.3L1384.6,405.3z M1413.6,405.3H1393v-20.6h20.6V405.3
	L1413.6,405.3z M1442.5,405.3h-20.6v-20.6h20.6V405.3L1442.5,405.3z M1479.8,400.3c1.2,1.7,2.3,3.4,3.4,5h-3.4V400.3L1479.8,400.3z
	 M1468.9,384.8l2.6,3.6v17h-20.6v-20.6H1468.9z M188.9,332.2h-5.5c1.8-2.4,3.6-4.9,5.5-7.3V332.2L188.9,332.2z M164.2,342.6h-20.6
	v-18.1l1.9-2.4h18.6V342.6L164.2,342.6z M144.7,310.6h-20.6V290h20.6V310.6L144.7,310.6z M342.7,376.4h-20.6v-20.5h20.6V376.4
	L342.7,376.4z M371.7,376.4h-20.6v-20.5h20.6V376.4L371.7,376.4z M400.6,376.4H380v-20.5h20.6V376.4L400.6,376.4z M458.5,376.4
	h-20.5v-20.5h20.5V376.4L458.5,376.4z M487.4,376.4h-20.6v-20.5h20.6V376.4L487.4,376.4z M516.4,376.4h-20.6v-20.5h20.6V376.4
	L516.4,376.4z M545.3,376.4h-20.5v-20.5h20.5V376.4L545.3,376.4z M574.3,376.4h-20.6v-20.5h20.6V376.4L574.3,376.4z M603.2,376.4
	h-20.5v-20.5h20.5V376.4L603.2,376.4z M1008.4,376.4h-20.6v-20.6h20.6V376.4L1008.4,376.4z M1037.3,376.4h-20.5v-20.6h20.5V376.4
	L1037.3,376.4z M1066.3,376.4h-20.6v-20.6h20.6V376.4L1066.3,376.4z M1095.2,376.4h-20.6v-20.6h20.6V376.4L1095.2,376.4z
	 M1153.1,376.4h-20.6v-20.6h20.6V376.4L1153.1,376.4z M1211,376.4h-20.6v-20.6h20.6V376.4L1211,376.4z M1488.7,346.9h-20.6v-20.5
	h20.6V346.9L1488.7,346.9z M1297.8,376.4h-20.6v-20.6h20.6V376.4L1297.8,376.4z M1326.8,376.4h-20.6v-20.6h20.6V376.4L1326.8,376.4z
	 M1355.7,376.4h-20.6v-20.6h20.6V376.4L1355.7,376.4z M1524.1,208.8h-20.6v-20.6h20.6V208.8L1524.1,208.8z M1450.9,360.8
	c4,5.1,8,10.3,11.9,15.6h-11.9V360.8L1450.9,360.8z M217.1,356.6h-11.9c3.9-4.8,7.9-9.6,11.9-14.3V356.6L217.1,356.6z M190,278.1
	h-20.6v-20.6H190V278.1L190,278.1z M313.8,347.5h-20.6v-20.6h20.6V347.5L313.8,347.5z M400.6,347.5H380v-20.6h20.6V347.5
	L400.6,347.5z M429.6,347.5H409v-20.6h20.6V347.5L429.6,347.5z M458.5,347.5h-20.5v-20.6h20.5V347.5L458.5,347.5z M516.4,347.5
	h-20.6v-20.6h20.6V347.5L516.4,347.5z M574.3,347.5h-20.6v-20.6h20.6V347.5L574.3,347.5z M1008.4,347.5h-20.6v-20.6h20.6V347.5
	L1008.4,347.5z M1037.3,347.5h-20.5v-20.6h20.5V347.5L1037.3,347.5z M1095.2,347.5h-20.6v-20.6h20.6V347.5L1095.2,347.5z
	 M1153.1,347.5h-20.6v-20.6h20.6V347.5L1153.1,347.5z M1182.1,347.5h-20.6v-20.6h20.6V347.5L1182.1,347.5z M1268.9,347.5h-20.6
	v-20.6h20.6V347.5L1268.9,347.5z M1297.8,347.5h-20.6v-20.6h20.6V347.5L1297.8,347.5z M1384.7,347.5h-20.6v-20.6h20.6V347.5
	L1384.7,347.5z M1413.6,347.5H1393v-20.6h20.6V347.5L1413.6,347.5z M239.8,315.9h-16.1c5.3-5.9,10.7-11.7,16.1-17.5V315.9
	L239.8,315.9z M289.7,223.3h-20.6v-20.6h20.6V223.3L289.7,223.3z M264,286.9h-20.6v-20.5H264V286.9L264,286.9z M371.7,318.5h-20.6
	V298h20.6V318.5L371.7,318.5z M516.4,318.5h-20.6V298h20.6V318.5L516.4,318.5z M545.3,318.5h-20.5V298h20.5V318.5L545.3,318.5z
	 M574.3,318.5h-20.6V298h20.6V318.5L574.3,318.5z M632.1,318.5h-20.6V298h20.6V318.5L632.1,318.5z M661.1,318.5h-20.6V298h20.6
	V318.5L661.1,318.5z M719,318.5h-20.6V298H719V318.5L719,318.5z M776.9,318.5h-20.6V298h20.6V318.5L776.9,318.5z M805.8,318.5h-20.5
	V298h20.5V318.5L805.8,318.5z M834.7,318.5h-20.5V298h20.5V318.5L834.7,318.5z M892.6,318.5h-20.5V298h20.5V318.5L892.6,318.5z
	 M921.6,318.5H901V298h20.5V318.5L921.6,318.5z M979.4,318.5h-20.5V298h20.5V318.5L979.4,318.5z M1008.4,318.5h-20.6V298h20.6V318.5
	L1008.4,318.5z M1066.3,318.5h-20.6V298h20.6V318.5L1066.3,318.5z M1095.2,318.5h-20.6V298h20.6V318.5L1095.2,318.5z M1153.1,318.5
	h-20.6V298h20.6V318.5L1153.1,318.5z M1211,318.5h-20.6V298h20.6V318.5L1211,318.5z M1239.9,318.5h-20.6V298h20.6V318.5
	L1239.9,318.5z M1268.9,318.5h-20.6V298h20.6V318.5L1268.9,318.5z M1297.8,318.5h-20.6V298h20.6V318.5L1297.8,318.5z M1355.7,318.5
	h-20.6V298h20.6V318.5L1355.7,318.5z M1396.5,298c5.8,6,11.5,12.2,17.1,18.4v2.2H1393V298H1396.5L1396.5,298z M235.4,260.2h-17.9
	c5.9-5.9,11.8-11.8,17.9-17.5V260.2L235.4,260.2z M296.2,263.1h-20.6v-20.6h20.6V263.1L296.2,263.1z M210,302.9h-20.6v-20.6H210
	V302.9L210,302.9z M326.3,252.3h-20.6v-20.6h20.6V252.3L326.3,252.3z M371.7,289.6h-20.6V269h20.6V289.6L371.7,289.6z M400.6,289.6
	H380V269h20.6V289.6L400.6,289.6z M458.5,289.6h-20.5V269h20.5V289.6L458.5,289.6z M516.4,289.6h-20.6V269h20.6V289.6L516.4,289.6z
	 M603.2,289.6h-20.5V269h20.5V289.6L603.2,289.6z M690,289.6h-20.6V269H690V289.6L690,289.6z M719,289.6h-20.6V269H719V289.6
	L719,289.6z M747.9,289.6h-20.6V269h20.6V289.6L747.9,289.6z M776.9,289.6h-20.6V269h20.6V289.6L776.9,289.6z M834.8,289.6h-20.5
	V269h20.5V289.6L834.8,289.6z M892.6,289.6h-20.5V269h20.5V289.6L892.6,289.6z M979.5,289.6h-20.5V269h20.5V289.6L979.5,289.6z
	 M1008.4,289.6h-20.6V269h20.6V289.6L1008.4,289.6z M1037.4,289.6h-20.5V269h20.5V289.6L1037.4,289.6z M1095.2,289.6h-20.6V269h20.6
	V289.6L1095.2,289.6z M1124.2,289.6h-20.6V269h20.6V289.6L1124.2,289.6z M1182.1,289.6h-20.6V269h20.6V289.6L1182.1,289.6z
	 M1239.9,289.6h-20.6V269h20.6V289.6L1239.9,289.6z M1297.8,289.6h-20.6V269h20.6V289.6L1297.8,289.6z M1326.8,289.6h-20.6V269h20.6
	V289.6L1326.8,289.6z M1367.3,269c5.9,5.5,11.6,11.1,17.3,16.8v3.7h-20.6V269L1367.3,269L1367.3,269z M262,253.4h-16.7
	c5.5-5,11.1-10,16.7-14.8V253.4L262,253.4z M299.4,312.6h-20.6V292h20.6V312.6L299.4,312.6z M371.7,260.6h-20.6v-20.6h20.6V260.6
	L371.7,260.6z M400.6,260.6H380v-20.6h20.6V260.6L400.6,260.6z M429.6,260.6H409v-20.6h20.6V260.6L429.6,260.6z M487.4,260.6h-20.6
	v-20.6h20.6V260.6L487.4,260.6z M516.4,260.6h-20.6v-20.6h20.6V260.6L516.4,260.6z M545.3,260.6h-20.5v-20.6h20.5V260.6L545.3,260.6
	z M574.3,260.6h-20.6v-20.6h20.6V260.6L574.3,260.6z M603.2,260.6h-20.5v-20.6h20.5V260.6L603.2,260.6z M632.1,260.6h-20.6v-20.6
	h20.6V260.6L632.1,260.6z M661.1,260.6h-20.6v-20.6h20.6V260.6L661.1,260.6z M719,260.6h-20.6v-20.6H719V260.6L719,260.6z
	 M747.9,260.6h-20.6v-20.6h20.6V260.6L747.9,260.6z M776.9,260.6h-20.6v-20.6h20.6V260.6L776.9,260.6z M805.8,260.6h-20.5v-20.6
	h20.5V260.6L805.8,260.6z M863.7,260.6h-20.6v-20.6h20.6V260.6L863.7,260.6z M892.6,260.6h-20.5v-20.6h20.5V260.6L892.6,260.6z
	 M921.6,260.6H901v-20.6h20.5V260.6L921.6,260.6z M950.5,260.6H930v-20.6h20.6V260.6L950.5,260.6z M1095.2,260.6h-20.6v-20.6h20.6
	V260.6L1095.2,260.6z M1153.1,260.6h-20.6v-20.6h20.6V260.6L1153.1,260.6z M1182.1,260.6h-20.6v-20.6h20.6V260.6L1182.1,260.6z
	 M1211,260.6h-20.6v-20.6h20.6V260.6L1211,260.6z M1268.9,260.6h-20.6v-20.6h20.6V260.6L1268.9,260.6z M1303.6,146.5H1283v-20.6
	h20.6V146.5L1303.6,146.5z M1350.4,207.5h-20.6v-20.6h20.6V207.5L1350.4,207.5z M1335.2,240.3c6.9,5.9,13.8,11.9,20.6,18v2.3h-20.6
	V240.3L1335.2,240.3L1335.2,240.3z M315.4,201h-12.1c4-3.3,8.1-6.5,12.1-9.7V201L315.4,201z M190.7,194.4h-20.6v-20.5h20.6V194.4
	L190.7,194.4z M400.6,231.7H380v-20.5h20.6V231.7L400.6,231.7z M429.6,231.7H409v-20.5h20.6V231.7L429.6,231.7z M458.5,231.7h-20.5
	v-20.5h20.5V231.7L458.5,231.7z M487.4,231.7h-20.6v-20.5h20.6V231.7L487.4,231.7z M516.4,231.7h-20.6v-20.5h20.6V231.7L516.4,231.7
	z M545.3,231.7h-20.5v-20.5h20.5V231.7L545.3,231.7z M603.2,231.7h-20.5v-20.5h20.5V231.7L603.2,231.7z M661.1,231.7h-20.6v-20.5
	h20.6V231.7L661.1,231.7z M719,231.7h-20.6v-20.5H719V231.7L719,231.7z M834.7,231.7h-20.5v-20.5h20.5V231.7L834.7,231.7z
	 M863.7,231.7h-20.6v-20.5h20.6V231.7L863.7,231.7z M979.5,231.7h-20.5v-20.5h20.5V231.7L979.5,231.7z M1008.4,231.7h-20.6v-20.5
	h20.6V231.7L1008.4,231.7z M1037.3,231.7h-20.5v-20.5h20.5V231.7L1037.3,231.7z M1066.3,231.7h-20.6v-20.5h20.6V231.7L1066.3,231.7z
	 M1095.2,231.7h-20.6v-20.5h20.6V231.7L1095.2,231.7z M1124.2,231.7h-20.6v-20.5h20.6V231.7L1124.2,231.7z M1182.1,231.7h-20.6
	v-20.5h20.6V231.7L1182.1,231.7z M1211,231.7h-20.6v-20.5h20.6V231.7L1211,231.7z M1303.7,190h-20.6v-20.5h20.6V190L1303.7,190z
	 M1402.4,225.2h-20.6v-20.5h20.6V225.2L1402.4,225.2z M1306.2,217c6.2,4.8,12.4,9.7,18.5,14.7h-18.5V217L1306.2,217z M342.7,202.8
	h-3.6l3.6-2.6V202.8L342.7,202.8z M357.8,148.2h-20.6v-8.5c5.9-4.1,11.8-8.1,17.8-12.1h2.8V148.2L357.8,148.2z M189.3,235.7h-20.6
	v-20.6h20.6V235.7L189.3,235.7z M458.5,202.8h-20.5v-20.6h20.5V202.8L458.5,202.8z M328.7,109.8h-20.6V89.2h20.6V109.8L328.7,109.8z
	 M545.3,202.8h-20.5v-20.6h20.5V202.8L545.3,202.8z M574.3,202.8h-20.6v-20.6h20.6V202.8L574.3,202.8z M603.2,202.8h-20.5v-20.6
	h20.5V202.8L603.2,202.8z M661.1,202.8h-20.6v-20.6h20.6V202.8L661.1,202.8z M690,202.8h-20.6v-20.6H690V202.8L690,202.8z
	 M776.9,202.8h-20.6v-20.6h20.6V202.8L776.9,202.8z M805.8,202.8h-20.5v-20.6h20.5V202.8L805.8,202.8z M834.7,202.8h-20.5v-20.6
	h20.5V202.8L834.7,202.8z M892.6,202.8h-20.5v-20.6h20.5V202.8L892.6,202.8z M921.6,202.8H901v-20.6h20.5V202.8L921.6,202.8z
	 M950.5,202.8H930v-20.6h20.6V202.8L950.5,202.8z M1037.4,202.8h-20.5v-20.6h20.5V202.8L1037.4,202.8z M1095.2,202.8h-20.6v-20.6
	h20.6V202.8L1095.2,202.8z M1125.2,87.2h-20.6V66.6h20.6V87.2L1125.2,87.2z M1182.1,202.8h-20.6v-20.6h20.6V202.8L1182.1,202.8z
	 M1205.3,174.8h-20.6v-20.6h20.6V174.8L1205.3,174.8z M1344.5,156.1H1324v-20.6h20.6V156.1L1344.5,156.1L1344.5,156.1z
	 M1263.2,148.4c3.8,2.5,7.6,5.1,11.4,7.6V169h-20.6v-20.6H1263.2z M354.7,78.8H336c6.2-3.9,12.4-7.7,18.7-11.5V78.8L354.7,78.8z
	 M458.5,173.8h-20.5v-20.6h20.5V173.8L458.5,173.8z M516.4,173.8h-20.6v-20.6h20.6V173.8L516.4,173.8z M545.3,173.8h-20.5v-20.6
	h20.5V173.8L545.3,173.8z M407.3,119.7h-20.6V99.1h20.6V119.7L407.3,119.7z M603.2,173.8h-20.5v-20.6h20.5V173.8L603.2,173.8z
	 M632.2,173.8h-20.6v-20.6h20.6V173.8L632.2,173.8z M690.1,173.8h-20.6v-20.6h20.6V173.8L690.1,173.8z M719,173.8h-20.6v-20.6H719
	V173.8L719,173.8z M748,173.8h-20.6v-20.6H748V173.8L748,173.8z M776.9,173.8h-20.6v-20.6h20.6V173.8L776.9,173.8z M834.8,173.8
	h-20.5v-20.6h20.5V173.8L834.8,173.8z M863.7,173.8h-20.6v-20.6h20.6V173.8L863.7,173.8z M892.7,173.8h-20.5v-20.6h20.5V173.8
	L892.7,173.8z M1008.4,173.8h-20.6v-20.6h20.6V173.8L1008.4,173.8z M1037.4,173.8h-20.5v-20.6h20.5V173.8L1037.4,173.8z
	 M1066.3,173.8h-20.6v-20.6h20.6V173.8L1066.3,173.8z M1124.2,173.8h-20.6v-20.6h20.6V173.8L1124.2,173.8z M1157.4,125.7h-20.6
	v-20.6h20.6V125.7L1157.4,125.7z M1231.5,120.7H1211v-20.6h20.6V120.7L1231.5,120.7z M1219.4,158.5c6.9,4,13.8,8.2,20.6,12.4v2.9
	h-20.6V158.5L1219.4,158.5z M1268.2,115.2l0.8,0.5v20.1h-20.6v-20.6H1268.2z M442.8,47.7h-20.5v-3.4c6.8-3.6,13.6-7,20.5-10.4V47.7
	L442.8,47.7z M418.5,79.1H398V61.1c1.9-0.9,3.8-1.8,5.6-2.7h14.9L418.5,79.1L418.5,79.1L418.5,79.1z M554.7,20.6h-20.5V0h20.5V20.6
	C554.7,20.6,554.7,20.6,554.7,20.6z M574.3,144.8h-20.6v-20.6h20.6V144.8L574.3,144.8z M603.2,144.8h-20.5v-20.6h20.5V144.8
	L603.2,144.8z M632.2,144.8h-20.6v-20.6h20.6V144.8L632.2,144.8z M719,144.8h-20.6v-20.6H719V144.8L719,144.8z M776.9,144.8h-20.6
	v-20.6h20.6V144.8L776.9,144.8z M805.8,144.8h-20.5v-20.6h20.5V144.8L805.8,144.8z M834.8,144.8h-20.5v-20.6h20.5V144.8L834.8,144.8
	z M863.7,144.8h-20.6v-20.6h20.6V144.8L863.7,144.8z M892.6,144.8h-20.5v-20.6h20.5V144.8L892.6,144.8z M950.5,144.8H930v-20.6h20.6
	V144.8L950.5,144.8z M979.5,144.8h-20.5v-20.6h20.5V144.8L979.5,144.8z M1037.4,144.8h-20.5v-20.6h20.5V144.8L1037.4,144.8z
	 M1066.3,144.8h-20.6v-20.6h20.6V144.8L1066.3,144.8z M1124.2,144.8h-20.6v-20.6h20.6V144.8L1124.2,144.8z M1183.9,95.3h-20.6V74.7
	h20.6V95.3L1183.9,95.3z M1161.5,127.9c6.9,3.3,13.8,6.7,20.6,10.2v6.8h-20.6V127.9L1161.5,127.9L1161.5,127.9z M473.6,12.5H453v-2
	c6.8-2.9,13.7-5.7,20.6-8.4V12.5L473.6,12.5z M538,76.2h-20.5V62.5c6.2-2.3,12.3-4.6,18.6-6.8h2L538,76.2L538,76.2L538,76.2z
	 M574.3,115.9h-20.6V95.4h20.6V115.9L574.3,115.9z M632.2,115.9h-20.6V95.4h20.6V115.9L632.2,115.9z M661.1,115.9h-20.6V95.4h20.6
	V115.9L661.1,115.9z M690.1,115.9h-20.6V95.4h20.6V115.9L690.1,115.9z M719,115.9h-20.6V95.4H719V115.9L719,115.9z M747.9,115.9
	h-20.6V95.4h20.6V115.9L747.9,115.9z M776.9,115.9h-20.6V95.4h20.6V115.9L776.9,115.9z M834.8,115.9h-20.5V95.4h20.5V115.9
	L834.8,115.9z M892.7,115.9h-20.5V95.4h20.5V115.9L892.7,115.9z M921.6,115.9H901V95.4h20.5V115.9L921.6,115.9z M979.5,115.9h-20.5
	V95.4h20.5V115.9L979.5,115.9z M1037.4,115.9h-20.5V95.4h20.5V115.9L1037.4,115.9z M1066.3,115.9h-20.6V95.4h20.6V115.9
	L1066.3,115.9z M1103.6,102.9c6.9,2.7,13.8,5.4,20.6,8.2v4.7h-20.6V102.9L1103.6,102.9L1103.6,102.9z M1083.1,95.4
	c4.1,1.4,8.1,2.9,12.2,4.4v16.2h-20.6V95.4H1083.1L1083.1,95.4z M602.2,30.6h-20.5v-4.4c6.8-2,13.7-4,20.5-5.8V30.6L602.2,30.6z
	 M632.2,87h-20.6V74.5c6.8-1.8,13.7-3.4,20.6-5V87L632.2,87z M661.1,87h-20.6V67.7c2-0.4,3.9-0.8,5.9-1.3h14.7L661.1,87L661.1,87
	L661.1,87z M719,87h-20.6V66.4H719V87L719,87z M805.8,87h-20.5V66.4h20.5V87L805.8,87z M892.6,87h-20.5V66.4h20.5V87L892.6,87z
	 M950.5,87H930V66.4h20.6V87L950.5,87z M1045.7,83.2c4.1,1.2,8.3,2.5,12.4,3.8h-12.4V83.2L1045.7,83.2z M1016.8,75.1
	c6.9,1.8,13.7,3.7,20.5,5.6V87h-20.5V75.1L1016.8,75.1z M987.9,68.1c6.9,1.5,13.7,3.1,20.6,4.8V87h-20.6V68.1
	C987.9,68.1,987.9,68.1,987.9,68.1z M719,58h-20.6v-0.8c6.8-1,13.7-1.9,20.6-2.7V58C719,58,719,58,719,58z M747.9,58h-20.6v-4.3
	c6.8-0.7,13.7-1.3,20.6-1.9V58L747.9,58z M776.9,58h-20.6v-6.9c6.8-0.5,13.7-0.9,20.6-1.2V58L776.9,58z M805.8,58h-20.5v-8.4
	c6.8-0.2,13.7-0.4,20.5-0.4V58C805.8,58,805.8,58,805.8,58z M930,57.6l3.2,0.5H930V57.6L930,57.6z M901,53.9
	c6.9,0.7,13.7,1.6,20.5,2.5V58H901V53.9L901,53.9L901,53.9z M872.1,51.3c6.9,0.5,13.7,1.1,20.5,1.7v5h-20.5V51.3L872.1,51.3
	L872.1,51.3z M843.1,49.7c6.9,0.2,13.7,0.6,20.6,1V58h-20.6V49.7L843.1,49.7z"/>
<path class="st1" d="M237.6,237.2h-20.6v-20.6h20.6V237.2L237.6,237.2z M1008.4,434.3h-20.6v-20.6h20.6V434.3L1008.4,434.3z
	 M1008.4,492.2h-20.6v-20.6h20.6V492.2L1008.4,492.2z M1182.1,521.1h-20.6v-20.6h20.6V521.1L1182.1,521.1z M1066.3,550h-20.6v-20.6
	h20.6V550L1066.3,550z M1240,376.4h-20.6v-20.6h20.6V376.4L1240,376.4z M1182.1,376.4h-20.6v-20.6h20.6V376.4L1182.1,376.4z
	 M1124.2,260.6h-20.6V240h20.6V260.6L1124.2,260.6z M1268.9,1367.8h-20.6v20.6h20.6V1367.8L1268.9,1367.8z M1182.1,1367.8h-20.6
	v20.6h20.6V1367.8L1182.1,1367.8z M921.6,1338.8H901v20.6h20.5V1338.8L921.6,1338.8z M1066.3,1367.8h-20.6v20.6h20.6V1367.8
	L1066.3,1367.8z M1037.3,1367.8h-20.5v20.6h20.5V1367.8L1037.3,1367.8z M1536.2,436.6h-20.6V416h20.6V436.6L1536.2,436.6z
	 M1556.5,346.1H1536v-20.6h20.6V346.1L1556.5,346.1z M1326.8,347.4h-20.6v-20.6h20.6V347.4L1326.8,347.4z M1355.7,289.5h-20.6V269
	h20.6V289.5L1355.7,289.5z M1297.8,405.3h-20.6v-20.6h20.6V405.3L1297.8,405.3z M1442.6,376.4H1422v-20.6h20.6V376.4L1442.6,376.4z
	 M1423,326.8c5.9,6.8,11.7,13.6,17.3,20.6H1422v-20.6H1423L1423,326.8z M1408.6,256.5h-20.6V236h20.6V256.5L1408.6,256.5z
	 M1480.4,277.4h-20.6v-20.6h20.6V277.4L1480.4,277.4z M1124.2,376.4h-20.6v-20.6h20.6V376.4L1124.2,376.4z M1066.3,405.3h-20.6
	v-20.6h20.6V405.3L1066.3,405.3z M1037.3,463.2h-20.5v-20.6h20.5V463.2L1037.3,463.2z M1239.9,347.4h-20.6v-20.6h20.6V347.4
	L1239.9,347.4z M1211,289.5h-20.6V269h20.6V289.5L1211,289.5z M1153.1,231.6h-20.6v-20.5h20.6V231.6L1153.1,231.6z M863.7,289.5
	h-20.6V269h20.6V289.5L863.7,289.5z M1401.7,915h-20.6v20.6h20.6V915L1401.7,915z M165.6,833.6h-20.6V813h20.6V833.6L165.6,833.6z
	 M313.8,579h-20.6v-20.5h20.6V579L313.8,579z M661.1,579h-20.6v-20.5h20.6V579L661.1,579z M727.6,951.1h-20.6v20.5h20.6V951.1
	L727.6,951.1z M1007.9,791.5h-20.5V771h20.5V791.5L1007.9,791.5z M1139.8,897.6h-20.6v20.6h20.6V897.6L1139.8,897.6z M1327.4,770.1
	h-20.5v-20.6h20.5V770.1L1327.4,770.1z M1289.5,679.5h-20.6V659h20.6V679.5L1289.5,679.5z M1236,671.7h-20.6v-20.5h20.6V671.7
	L1236,671.7z M1483.4,849.5h-20.6v20.6h20.6V849.5L1483.4,849.5z M451.4,978.4h-20.6V999h20.6V978.4L451.4,978.4z M534.6,956.8H514
	v20.5h20.5V956.8L534.6,956.8z M1326.8,1454.6h-20.6v20.6h20.6V1454.6L1326.8,1454.6z M776.9,1367.8h-20.6v20.6h20.6V1367.8
	L776.9,1367.8z M690,1396.7h-20.6v20.6H690V1396.7L690,1396.7z M632.1,1396.7h-20.6v20.6h20.6V1396.7L632.1,1396.7z M574.3,1396.7
	h-20.6v20.6h20.6V1396.7L574.3,1396.7z M487.4,1396.7h-20.6v20.6h20.6V1396.7L487.4,1396.7z M429.6,1396.7H409v20.6h20.6V1396.7
	L429.6,1396.7z M545.3,1223.1h-20.5v20.6h20.5V1223.1L545.3,1223.1z M458.5,1223.1h-20.5v20.6h20.5V1223.1L458.5,1223.1z
	 M371.7,1223.1h-20.6v20.6h20.6V1223.1L371.7,1223.1z M313.8,1223.1h-20.6v20.6h20.6V1223.1L313.8,1223.1z M284.8,1223.1h-20.6v20.6
	h20.6V1223.1L284.8,1223.1z M313.8,1136.3h-20.6v20.6h20.6V1136.3L313.8,1136.3z M313.8,1078.7h-20.6v20.2h20.6V1078.7L313.8,1078.7
	z M342.7,1078.7h-20.6v20.2h20.6V1078.7L342.7,1078.7z M1008.4,1512.5h-20.6v20.6h20.6V1512.5L1008.4,1512.5z M1008.4,1483.6h-20.6
	v20.5h20.6V1483.6L1008.4,1483.6z M1008.4,1599.3h-20.6v20.6h20.6V1599.3L1008.4,1599.3z M992.1,1665.9h-20.6v20.6h20.6V1665.9
	L992.1,1665.9z M960.5,1756.7H940v20.6h20.6V1756.7L960.5,1756.7z M1013.7,1727.4h-20.6v20.6h20.6V1727.4L1013.7,1727.4z
	 M1041.6,1708.8c4.1-1.4,8.1-2.9,12.2-4.4v-16.1h-20.6v20.6L1041.6,1708.8L1041.6,1708.8z M1176.6,1613.5H1156v20.6h20.6V1613.5
	L1176.6,1613.5z M1154.4,1693.2h-20.6v20.6h20.6V1693.2L1154.4,1693.2z M1200.4,1653.5h-20.6v20.6h20.6V1653.5L1200.4,1653.5z
	 M1268.5,1595.1l0.8-0.5v-20.1h-20.6v20.6L1268.5,1595.1L1268.5,1595.1z M1243.8,1607.7h-20.6v20.6h20.6V1607.7L1243.8,1607.7z
	 M1347.2,1597.6h-20.6v20.6h20.6V1597.6L1347.2,1597.6z M1297.8,1165.2h-20.6v20.6h20.6V1165.2L1297.8,1165.2z M1268.9,1223.1h-20.6
	v20.6h20.6V1223.1L1268.9,1223.1z M1182.1,1136.3h-20.6v20.6h20.6V1136.3L1182.1,1136.3z M1124.2,1078.7h-20.6v20.2h20.6V1078.7
	L1124.2,1078.7z M1037.4,1078.7h-20.5v20.2h20.5V1078.7L1037.4,1078.7z M921.6,1136.3H901v20.6h20.5V1136.3L921.6,1136.3z
	 M863.7,1107.3h-20.6v20.6h20.6V1107.3L863.7,1107.3z M776.9,1107.3h-20.6v20.6h20.6V1107.3L776.9,1107.3z M690,1107.3h-20.6v20.6
	H690V1107.3L690,1107.3z M1537.7,1338.4c1.9-3.6,3.8-7.1,5.7-10.7v-9.9h-20.6v20.6H1537.7L1537.7,1338.4z M1523.2,1309.4l2.6-3.6
	v-17h-20.6v20.6H1523.2L1523.2,1309.4z M1602.5,1268.4h-20.6v20.6h20.6V1268.4L1602.5,1268.4z M1631.1,1175.1h-20.6v20.6h20.6
	V1175.1L1631.1,1175.1z M1623.8,1113.4h-20.6v20.2h20.6V1113.4L1623.8,1113.4z M1585,1098.9c0.8-2.5,1.5-4.9,2.3-7.4v-12.8h-20.6
	v20.2L1585,1098.9L1585,1098.9z M1552.2,1036.7h-20.6v20.2h20.6V1036.7L1552.2,1036.7z M1483.5,1011.2h-20.6v20.6h20.6V1011.2
	L1483.5,1011.2L1483.5,1011.2z M1500.4,1078.7h-20.6v20.2h20.6V1078.7L1500.4,1078.7z M1471.5,1107.3h-20.6v20.6h20.6V1107.3
	L1471.5,1107.3z M1471.5,1165.2h-20.6v20.6h20.6V1165.2L1471.5,1165.2z M1355.7,1281h-20.6v20.6h20.6V1281L1355.7,1281z
	 M1326.8,1252h-20.6v20.6h20.6V1252L1326.8,1252z M1095.2,1107.3h-20.6v20.6h20.6V1107.3L1095.2,1107.3z M1095.2,1136.3h-20.6v20.6
	h20.6V1136.3L1095.2,1136.3z M1240,1107.3h-20.6v20.6h20.6V1107.3L1240,1107.3z M1240,1136.3h-20.6v20.6h20.6V1136.3L1240,1136.3z
	 M1384.7,1136.3h-20.6v20.6h20.6V1136.3L1384.7,1136.3z M1384.7,1194.1h-20.6v20.6h20.6V1194.1L1384.7,1194.1z M1384.7,1252h-20.6
	v20.6h20.6V1252L1384.7,1252z M1471.5,1281h-20.6v20.6h20.6V1281L1471.5,1281z M1442.6,1281H1422v20.6h20.6V1281L1442.6,1281z
	 M1384.7,1309.9h-20.6v20.6h20.6V1309.9L1384.7,1309.9z M1326.8,1309.9h-20.6v20.6h20.6V1309.9L1326.8,1309.9z M1240,1281h-20.6
	v20.6h20.6V1281L1240,1281z M1182.1,1309.9h-20.6v20.6h20.6V1309.9L1182.1,1309.9z M1124.2,1281h-20.6v20.6h20.6V1281L1124.2,1281z
	 M1153.1,1223.1h-20.6v20.6h20.6V1223.1L1153.1,1223.1z M950.5,1281H930v20.6h20.6V1281L950.5,1281z M892.6,1223.1h-20.5v20.6h20.5
	V1223.1L892.6,1223.1z M863.7,1252h-20.6v20.6h20.6V1252L863.7,1252z M863.7,1280.9h-20.6v20.6h20.6V1280.9L863.7,1280.9z
	 M834.7,1309.9h-20.5v20.6h20.5V1309.9L834.7,1309.9z M805.8,1309.9h-20.5v20.6h20.5V1309.9L805.8,1309.9z M921.6,1194.1H901v20.6
	h20.5V1194.1L921.6,1194.1z M950.5,1136.2H930v20.6h20.6V1136.2L950.5,1136.2z M1008.4,1107.3h-20.6v20.6h20.6V1107.3L1008.4,1107.3
	z M1037.4,1194.1h-20.5v20.6h20.5V1194.1L1037.4,1194.1z M1066.3,1309.9h-20.6v20.6h20.6V1309.9L1066.3,1309.9z M1066.3,1252h-20.6
	v20.6h20.6V1252L1066.3,1252z M1095.2,1252h-20.6v20.6h20.6V1252L1095.2,1252z M1182.1,1252h-20.6v20.6h20.6V1252L1182.1,1252z
	 M1182.1,1338.8h-20.6v20.6h20.6V1338.8L1182.1,1338.8z M1240,1338.8h-20.6v20.6h20.6V1338.8L1240,1338.8z M1268.9,1396.7h-20.6
	v20.6h20.6V1396.7L1268.9,1396.7z M1297.8,1454.6h-20.6v20.6h20.6V1454.6L1297.8,1454.6z M1182.1,1454.6h-20.6v20.6h20.6V1454.6
	L1182.1,1454.6z M1153.1,1454.6h-20.6v20.6h20.6V1454.6L1153.1,1454.6z M1095.2,1454.6h-20.6v20.6h20.6V1454.6L1095.2,1454.6z
	 M1037.4,1454.6h-20.5v20.6h20.5V1454.6L1037.4,1454.6z M1008.4,1454.6h-20.6v20.6h20.6V1454.6L1008.4,1454.6z M690.1,1541.5h-20.6
	v20.6h20.6V1541.5L690.1,1541.5z M690.1,1454.6h-20.6v20.6h20.6V1454.6L690.1,1454.6z M690.1,1483.6h-20.6v20.5h20.6V1483.6
	L690.1,1483.6z M747.9,1483.6h-20.6v20.5h20.6V1483.6L747.9,1483.6z M805.8,1483.6h-20.5v20.5h20.5V1483.6L805.8,1483.6z
	 M805.8,1454.6h-20.5v20.6h20.5V1454.6L805.8,1454.6z M805.8,1425.7h-20.5v20.6h20.5V1425.7L805.8,1425.7z M863.7,1425.7h-20.6v20.6
	h20.6V1425.7L863.7,1425.7z M892.6,1454.6h-20.5v20.6h20.5V1454.6L892.6,1454.6z M892.6,1512.5h-20.5v20.6h20.5V1512.5L892.6,1512.5
	z M892.6,1483.6h-20.5v20.5h20.5V1483.6L892.6,1483.6z M863.7,1570.4h-20.6v20.6h20.6V1570.4L863.7,1570.4z M892.6,1599.3h-20.5
	v20.6h20.5V1599.3L892.6,1599.3z M892.6,1628.3h-20.5v20.6h20.5V1628.3L892.6,1628.3z M458.5,1483.6h-20.5v20.5h20.5V1483.6
	L458.5,1483.6z M487.4,1454.6h-20.6v20.6h20.6V1454.6L487.4,1454.6z M516.4,1425.7h-20.6v20.6h20.6V1425.7L516.4,1425.7z
	 M516.4,1512.5h-20.6v20.6h20.6V1512.5L516.4,1512.5z M574.3,1541.5h-20.6v20.6h20.6V1541.5L574.3,1541.5z M574.3,1599.3h-20.6v20.6
	h20.6V1599.3L574.3,1599.3z M603.2,1599.3h-20.5v20.6h20.5V1599.3L603.2,1599.3z M690,1599.3h-20.6v20.6H690V1599.3L690,1599.3z
	 M690,1628.3h-20.6v20.6H690V1628.3L690,1628.3z M776.9,1628.3h-20.6v20.6h20.6V1628.3L776.9,1628.3z M805.8,1628.3h-20.5v20.6h20.5
	V1628.3L805.8,1628.3z M747.9,1628.3h-20.6v20.6h20.6V1628.3L747.9,1628.3z M574.3,1454.6h-20.6v20.6h20.6V1454.6L574.3,1454.6z
	 M574.3,1367.8h-20.6v20.6h20.6V1367.8L574.3,1367.8z M545.3,1338.9h-20.5v20.6h20.5V1338.9L545.3,1338.9z M458.5,1338.9h-20.5v20.6
	h20.5V1338.9L458.5,1338.9z M429.6,1309.9H409v20.6h20.6V1309.9L429.6,1309.9z M371.7,1367.8h-20.6v20.6h20.6V1367.8L371.7,1367.8z
	 M322.9,1434.5h-20.6v20.6h20.6V1434.5L322.9,1434.5z M574.3,1194.1h-20.6v20.6h20.6V1194.1L574.3,1194.1z M574.3,1252h-20.6v20.6
	h20.6V1252L574.3,1252z M632.1,1252h-20.6v20.6h20.6V1252L632.1,1252z M632.1,1280.9h-20.6v20.6h20.6V1280.9L632.1,1280.9z
	 M719,1280.9h-20.6v20.6H719V1280.9L719,1280.9z M747.9,1252h-20.6v20.6h20.6V1252L747.9,1252z M776.9,1223.1h-20.6v20.6h20.6
	V1223.1L776.9,1223.1z M776.9,1194.1h-20.6v20.6h20.6V1194.1L776.9,1194.1z M776.9,1165.2h-20.6v20.6h20.6V1165.2L776.9,1165.2z
	 M719,1136.3h-20.6v20.6H719V1136.3L719,1136.3z M690,1136.3h-20.6v20.6H690V1136.3L690,1136.3z M371.7,1194.1h-20.6v20.6h20.6
	V1194.1L371.7,1194.1z M371.7,1165.2h-20.6v20.6h20.6V1165.2L371.7,1165.2z M255.9,1165.2h-20.6v20.6h20.6V1165.2L255.9,1165.2z
	 M169.1,1165.2h-20.6v20.6h20.6V1165.2L169.1,1165.2z M169.1,1107.3h-20.6v20.6h20.6V1107.3L169.1,1107.3z M140.1,1136.3h-20.5v20.6
	h20.5V1136.3L140.1,1136.3z M458.5,1136.3h-20.5v20.6h20.5V1136.3L458.5,1136.3z M487.4,1107.3h-20.6v20.6h20.6V1107.3L487.4,1107.3
	z M487.4,1136.3h-20.6v20.6h20.6V1136.3L487.4,1136.3z M888.8,1029.7h-20.6v20.2h20.6V1029.7L888.8,1029.7z M661.1,1367.8h-20.6
	v20.6h20.6V1367.8L661.1,1367.8z M719,1223.1h-20.6v20.6H719V1223.1L719,1223.1z M516.4,1252h-20.6v20.6h20.6V1252L516.4,1252z
	 M181,1417.2h-20.6v20.6H181V1417.2L181,1417.2z M277.8,1374.5h-20.6v20.6h20.6V1374.5L277.8,1374.5z M284.8,1280.9h-20.6v20.6h20.6
	V1280.9L284.8,1280.9z M574.3,1136.2h-20.6v20.6h20.6V1136.2L574.3,1136.2z M603.2,1078.7h-20.5v20.2h20.5V1078.7L603.2,1078.7z
	 M667.3,1011.8h-20.6v20.2h20.6V1011.8L667.3,1011.8z M764.7,1007h-20.6v20.2h20.6V1007L764.7,1007z M284.8,579h-20.6v-20.5h20.6
	V579L284.8,579z M342.7,579h-20.6v-20.5h20.6V579L342.7,579z M313.8,636.5h-20.6v-20.2h20.6V636.5L313.8,636.5z M255.9,636.5h-20.6
	v-20.2h20.6V636.5L255.9,636.5z M206.9,703.1h-20.6v-20.5h20.6V703.1L206.9,703.1z M476.8,795.4h-20.6v-20.6h20.6V795.4L476.8,795.4
	z M198,550h-20.6v-20.6H198V550L198,550z M198,607.9h-20.6v-20.5H198V607.9L198,607.9z M169.1,607.9h-20.6v-20.5h20.6V607.9
	L169.1,607.9z M140.1,607.9h-20.5v-20.5h20.5V607.9L140.1,607.9z M111.2,521.1H90.6v-20.6h20.6V521.1L111.2,521.1z M227,492.2h-20.6
	v-20.6H227V492.2L227,492.2z M198,492.2h-20.6v-20.6H198V492.2L198,492.2z M478.8,73.8h-20.6V53.3h20.6V73.8L478.8,73.8z
	 M502.4,46.4h-20.6V25.8h20.6V46.4L502.4,46.4L502.4,46.4z M719,202.7h-20.6v-20.6H719V202.7L719,202.7z M690.1,231.7h-20.6v-20.5
	h20.6V231.7L690.1,231.7z M661.1,289.6h-20.6V269h20.6V289.6L661.1,289.6z M632.2,463.2h-20.6v-20.6h20.6V463.2L632.2,463.2z
	 M545.3,463.2h-20.5v-20.6h20.5V463.2L545.3,463.2z M429.6,463.2H409v-20.6h20.6V463.2L429.6,463.2z M400.6,434.3H380v-20.6h20.6
	V434.3L400.6,434.3z M400.6,405.3H380v-20.6h20.6V405.3L400.6,405.3z M747.9,87h-20.6V66.4h20.6V87L747.9,87z M747.9,144.8h-20.6
	v-20.6h20.6V144.8L747.9,144.8z M834.8,87h-20.5V66.4h20.5V87L834.8,87z M805.8,115.9h-20.5V95.3h20.5V115.9L805.8,115.9z M921.6,87
	H901V66.4h20.5V87L921.6,87z M979.5,87h-20.5V66.4h20.5V87L979.5,87z M1008.4,144.8h-20.6v-20.6h20.6V144.8L1008.4,144.8z
	 M1095.2,144.8h-20.6v-20.6h20.6V144.8L1095.2,144.8z M1095.2,173.8h-20.6v-20.6h20.6V173.8L1095.2,173.8z M921.6,231.7H901v-20.5
	h20.5V231.7L921.6,231.7z M892.6,231.7h-20.5v-20.5h20.5V231.7L892.6,231.7z M1384.7,579h-20.6v-20.5h20.6V579L1384.7,579z
	 M1384.7,550.1h-20.6v-20.6h20.6V550.1L1384.7,550.1z M1442.6,521.1H1422v-20.6h20.6V521.1L1442.6,521.1z M1500.4,579h-20.6v-20.5
	h20.6V579L1500.4,579z M1529.4,579h-20.6v-20.5h20.6V579L1529.4,579z M1552.2,529.5c2.1,4.7,4.1,9.4,6.1,14.1v6.5h-20.6v-20.6
	L1552.2,529.5L1552.2,529.5z M1595.3,538.7h-20.6v-20.5h20.6V538.7L1595.3,538.7z M1661.1,507.4h-20.6v-20.5h20.6V507.4
	L1661.1,507.4z M1583.8,651c0.8,2.5,1.5,4.9,2.3,7.4v12.8h-20.6V651H1583.8z M1543.3,687.4h-20.6v-20.2h20.6V687.4L1543.3,687.4z
	 M1397.1,704.6h-20.6v-20.5h20.6V704.6L1397.1,704.6z M1384.7,636.6h-20.6v-20.2h20.6V636.6L1384.7,636.6z M1355.7,608h-20.6v-20.5
	h20.6V608L1355.7,608z M1355.7,550.1h-20.6v-20.6h20.6V550.1L1355.7,550.1z M1355.7,521.2h-20.6v-20.6h20.6V521.2L1355.7,521.2z
	 M1008.4,579h-20.6v-20.5h20.6V579L1008.4,579z M1268.9,579h-20.6v-20.5h20.6V579L1268.9,579z M1268.9,521.2h-20.6v-20.6h20.6V521.2
	L1268.9,521.2z M1297.8,492.2h-20.6v-20.6h20.6V492.2L1297.8,492.2z M719,579h-20.6v-20.5H719V579L719,579z M719,636.6h-20.6v-20.2
	H719V636.6L719,636.6z M661.1,608h-20.6v-20.5h20.6V608L661.1,608z M632.2,579h-20.6v-20.5h20.6V579L632.2,579z M574.3,579h-20.6
	v-20.5h20.6V579L574.3,579z M545.3,492.2h-20.5v-20.6h20.5V492.2L545.3,492.2z M516.4,492.2h-20.6v-20.6h20.6V492.2L516.4,492.2z
	 M458.5,521.2h-20.5v-20.6h20.5V521.2L458.5,521.2z M458.5,579h-20.5v-20.5h20.5V579L458.5,579z M458.5,608h-20.5v-20.5h20.5V608
	L458.5,608z M458.5,636.6h-20.5v-20.2h20.5V636.6L458.5,636.6z M474.6,690.3H454v-20.2h20.6V690.3L474.6,690.3z M805.8,636.6h-20.5
	v-20.2h20.5V636.6L805.8,636.6z M950.5,608H930v-20.5h20.6V608L950.5,608z M979.5,608h-20.5v-20.5h20.5V608L979.5,608z
	 M1008.4,636.6h-20.6v-20.2h20.6V636.6L1008.4,636.6z M979.5,636.6h-20.5v-20.2h20.5V636.6L979.5,636.6z M950.5,636.6H930v-20.2
	h20.6V636.6L950.5,636.6z M921.6,636.6H901v-20.2h20.5V636.6L921.6,636.6z M1153.1,636.6h-20.6v-20.2h20.6V636.6L1153.1,636.6z
	 M1132.9,689.3h-20.6v-20.2h20.6V689.3L1132.9,689.3z M1153.1,550.1h-20.6v-20.6h20.6V550.1L1153.1,550.1z M1066.3,202.8h-20.6
	v-20.6h20.6V202.8L1066.3,202.8z M1066.3,260.7h-20.6v-20.6h20.6V260.7L1066.3,260.7z M979.5,260.7h-20.5v-20.6h20.5V260.7
	L979.5,260.7z M950.5,289.6H930v-20.6h20.6V289.6L950.5,289.6z M921.6,289.6H901v-20.6h20.5V289.6L921.6,289.6z M747.9,492.2h-20.6
	v-20.6h20.6V492.2L747.9,492.2z M1182.1,318.6h-20.6V298h20.6V318.6L1182.1,318.6z M1234.5,227.4H1214v-20.5h20.6V227.4
	L1234.5,227.4z M1265.3,215.7h-20.6v-20.6h20.6V215.7L1265.3,215.7z M1304.4,257.1h-20.6v-20.6h20.6V257.1L1304.4,257.1z
	 M1384.7,318.6h-20.6V298h20.6V318.6L1384.7,318.6z M1384.7,376.4h-20.6v-20.6h20.6V376.4L1384.7,376.4z M1384.7,463.3h-20.6v-20.6
	h20.6V463.3L1384.7,463.3z M1355.7,463.3h-20.6v-20.6h20.6V463.3L1355.7,463.3z M1182.1,492.2h-20.6v-20.6h20.6V492.2L1182.1,492.2z
	 M1095.2,463.3h-20.6v-20.6h20.6V463.3L1095.2,463.3z M1066.3,347.5h-20.6v-20.6h20.6V347.5L1066.3,347.5z M1066.3,289.6h-20.6
	v-20.6h20.6V289.6L1066.3,289.6z M603.2,318.6h-20.5V298h20.5V318.6L603.2,318.6z M603.2,347.5h-20.5v-20.6h20.5V347.5L603.2,347.5z
	 M603.2,405.4h-20.5v-20.6h20.5V405.4L603.2,405.4z M805.8,289.6h-20.5v-20.6h20.5V289.6L805.8,289.6z M805.8,231.7h-20.5v-20.5
	h20.5V231.7L805.8,231.7z M776.9,231.7h-20.6v-20.5h20.6V231.7L776.9,231.7z M747.9,231.7h-20.6v-20.5h20.6V231.7L747.9,231.7z
	 M979.5,202.8h-20.5v-20.6h20.5V202.8L979.5,202.8L979.5,202.8z M979.5,173.8h-20.5v-20.6h20.5V173.8L979.5,173.8z M950.5,173.8H930
	v-20.6h20.6V173.8L950.5,173.8z M921.6,173.8H901v-20.6h20.5V173.8L921.6,173.8z M921.6,492.2H901v-20.6h20.5V492.2L921.6,492.2z
	 M834.7,492.2h-20.5v-20.6h20.5V492.2L834.7,492.2z M458.5,260.7h-20.5v-20.6h20.5V260.7L458.5,260.7z M458.5,318.6h-20.5V298h20.5
	V318.6L458.5,318.6z M429.6,318.6H409V298h20.6V318.6L429.6,318.6z M400.6,318.6H380V298h20.6V318.6L400.6,318.6z M342.7,318.6
	h-20.6V298h20.6V318.6L342.7,318.6z M342.7,347.5h-20.6v-20.6h20.6V347.5L342.7,347.5z M313.8,376.4h-20.6v-20.5h20.6V376.4
	L313.8,376.4z M284.8,347.5h-20.6v-20.6h20.6V347.5L284.8,347.5z M255.9,376.4h-20.6v-20.5h20.6V376.4L255.9,376.4z M545.3,289.6
	h-20.5v-20.6h20.5V289.6L545.3,289.6z M487.4,318.6h-20.6V298h20.6V318.6L487.4,318.6z M342.7,434.3h-20.6v-20.6h20.6V434.3
	L342.7,434.3z M255.9,463.3h-20.6v-20.6h20.6V463.3L255.9,463.3z M169.1,463.3h-20.6v-20.6h20.6L169.1,463.3L169.1,463.3
	L169.1,463.3z M169.1,434.3h-20.6v-20.6h20.6L169.1,434.3L169.1,434.3L169.1,434.3z M661.1,144.8h-20.6v-20.6h20.6V144.8
	L661.1,144.8z M632.2,202.7h-20.6v-20.6h20.6V202.7L632.2,202.7z M516.4,202.7h-20.6v-20.6h20.6V202.7L516.4,202.7z M471.8,119.5
	h-20.6V98.9h20.6V119.5L471.8,119.5z M429.6,173.8H409v-16.4c2.4-1.4,4.8-2.8,7.2-4.1h13.4V173.8L429.6,173.8L429.6,173.8z
	 M429.6,202.8H409v-20.6h20.6V202.8L429.6,202.8z M322.7,181.5h-20.6v-20.6h20.6V181.5L322.7,181.5z M271.7,151.1h-20.6v-16.2
	c1.9-1.4,3.8-2.9,5.6-4.3h14.9L271.7,151.1L271.7,151.1L271.7,151.1z M260.4,207.3h-20.6v-20.6h20.6V207.3L260.4,207.3z"/>
<path class="st1" d="M671.1,337.8h56.1v-13.3l15.4,6.1v7.1h58.9v13.5h-58.9v11.2h47.7v55h-35c4.1,4,10.2,9.1,18.2,13.8
	c16.1,9.4,29.8,15.4,29.8,15.4l-12.4,14.8c0,0-16.7-8.4-36.2-24.7c-4.8-4-8.9-7.8-12.2-11.1v35.4h-15.4v-35.4
	c-3.3,3.3-7.3,7-12.2,11.1c-19.5,16.3-36.2,24.7-36.2,24.7l-12.4-14.8c0,0,13.7-6,29.8-15.4c8-4.7,14.1-9.8,18.2-13.8h-32.2v-55h45
	v-11.2h-56.1V337.8L671.1,337.8L671.1,337.8z M820.3,340.5h56.1v-13.3l15.4,6.1v7.1h58.9V354H820.3V340.5L820.3,340.5z M861.4,425
	c0,0-7,9.4-15.6,18c-8.6,8.6-14.9,13.6-14.9,13.6c-4-3.1-8.1-6.2-12.1-9.4c10-8.4,20.6-19.5,26.9-28.1
	C850.9,421.1,856.2,423,861.4,425L861.4,425L861.4,425z M912.4,425c0,0,7,9.4,15.6,18c8.6,8.6,14.9,13.6,14.9,13.6
	c4-3.1,8.1-6.2,12.1-9.4c-10-8.4-20.6-19.5-26.9-28.1C922.9,421.1,917.7,423,912.4,425L912.4,425L912.4,425z M835.9,365.9h99.2v46.8
	h-43.3v35.7c0,11.7-4.9,13.6-15.4,14.6c-7.4,0.7-14.8,0.3-14.8,0.3l-8.2-16.6c0,0,11.8,0.9,18.4,0.5c5.2-0.3,4.5-3.4,4.5-7.4v-27.1
	h-40.6V365.9L835.9,365.9L835.9,365.9z M853.1,378.1H918v22.2h-64.9V378.1L853.1,378.1z M742.6,373.5v11.1H773v-11.1H742.6z
	 M742.6,395.4v11.1H773v-11.1H742.6z M727.2,406.5v-11.1h-27.7v11.1H727.2z M727.2,384.6v-11.1h-27.7v11.1H727.2z"/>
<text transform="matrix(1 0 0 1 68.67 966.68)" class="st2 st3 st4 st5">Neon </text>
<text transform="matrix(1 0 0 1 847.73 966.68)" class="st2 st3 st4 st6">T</text>
<text transform="matrix(1 0 0 1 994.24 966.68)" class="st2 st3 st4 st5">ok</text>
<text transform="matrix(1 0 0 1 1310.66 966.68)" class="st2 st3 st4">y</text>
<text transform="matrix(1 0 0 1 1457.4801 966.68)" class="st2 st3 st4 st5">o</text>
</svg>
